<?xml version="1.0" encoding="utf-8"?>
<!-- Generator: Adobe Illustrator 23.0.3, SVG Export Plug-In . SVG Version: 6.00 Build 0)  -->
<svg version="1.1" id="Capa_1" xmlns="http://www.w3.org/2000/svg" xmlns:xlink="http://www.w3.org/1999/xlink" x="0px" y="0px"
	 viewBox="0 0 43 43" style="enable-background:new 0 0 43 43;" xml:space="preserve">
<style type="text/css">
	.st0{fill:#069B69;}
	.st1{fill:#FFFFFF;}
</style>
<g>
	<circle class="st0" cx="21.5" cy="21.5" r="21.5"/>
	<g>
		<g>
			<path class="st1" d="M34.4,19.3l-20-8.3c-0.8-0.3-1.8-0.2-2.5,0.4c-0.7,0.6-1,1.5-0.8,2.4l1.8,7h8.7c0.4,0,0.7,0.3,0.7,0.7
				c0,0.4-0.3,0.7-0.7,0.7H13l-1.8,7c-0.2,0.9,0.1,1.8,0.8,2.4c0.7,0.6,1.6,0.8,2.5,0.4l20-8.3c0.9-0.4,1.5-1.2,1.5-2.2
				C35.9,20.5,35.3,19.7,34.4,19.3z"/>
		</g>
	</g>
</g>
</svg>
