<svg width="37" height="36" viewBox="0 0 37 36" fill="none" xmlns="http://www.w3.org/2000/svg">
<g clip-path="url(#clip0)">
<path d="M25.316 22.7114C25.8028 22.7114 26.2897 22.349 26.2897 21.745V18.9664C26.2897 18.4832 25.9245 18 25.316 18C24.8291 18 24.3423 18.3624 24.3423 18.9664V21.745C24.464 22.2282 24.8291 22.7114 25.316 22.7114Z" fill="#069B69"/>
<path d="M11.6841 22.7114C12.171 22.7114 12.6578 22.349 12.6578 21.745V18.9664C12.6578 18.4832 12.2927 18 11.6841 18C11.1973 18 10.7104 18.3624 10.7104 18.9664V21.745C10.7104 22.2282 11.1973 22.7114 11.6841 22.7114Z" fill="#069B69"/>
<path d="M36.148 11.9597H26.2895V7.73154C26.2895 3.50336 22.7599 0 18.5 0C14.2401 0 10.7105 3.50336 10.7105 7.73154V12.0805H0.973684C0 11.9597 0 12.6846 0 12.9262L3.40789 31.5302C3.89474 34.0671 6.08553 36 8.76316 36.1208H18.3783H28.1151C30.7928 36.1208 32.9836 34.1879 33.4704 31.5302L36.8783 12.9262C37.1217 12.6846 37 11.9597 36.148 11.9597ZM12.5362 7.73154C12.5362 4.4698 15.2138 1.81208 18.5 1.81208C21.7862 1.81208 24.4638 4.4698 24.4638 7.73154V12.0805H18.5H12.5362V7.73154ZM31.7664 31.2886C31.4013 32.9799 29.9408 34.3087 28.2368 34.3087H18.5H8.88487C7.18092 34.3087 5.59868 32.9799 5.35526 31.2886L2.06908 13.7718H18.5H35.0526L31.7664 31.2886Z" fill="#069B69"/>
</g>
<defs>
<clipPath id="clip0">
<rect width="37" height="36" fill="white"/>
</clipPath>
</defs>
</svg>
