<svg width="37" height="37" viewBox="0 0 37 37" fill="none" xmlns="http://www.w3.org/2000/svg">
<g clip-path="url(#clip0)">
<path d="M36.1 12.1H26.3V7.8C26.3 3.5 22.8 0 18.5 0C14.2 0 10.8 3.5 10.8 7.8V12.1H0.9C0 12.1 0 12.8 0 13L3.4 31.7C3.9 34.3 6.1 36.2 8.8 36.3H18.5H28.2C30.9 36.3 33.1 34.3 33.6 31.7L37 13C37 12.8 37 12.1 36.1 12.1ZM12.6 21.9C12.6 22.4 12.2 22.8 11.7 22.8C11.2 22.8 10.8 22.4 10.8 21.9V19.2C10.8 18.7 11.2 18.3 11.7 18.3C12.2 18.3 12.6 18.7 12.6 19.2V21.9ZM24.4 12.1H18.5H12.6V7.8C12.6 4.5 15.2 1.9 18.5 1.9C21.8 1.9 24.4 4.6 24.4 7.8V12.1ZM26.3 21.9C26.3 22.4 25.9 22.8 25.4 22.8C24.9 22.8 24.5 22.4 24.5 21.9V19.2C24.5 18.7 24.9 18.3 25.4 18.3C25.9 18.3 26.3 18.7 26.3 19.2V21.9Z" fill="#069B69"/>
</g>
<defs>
<clipPath id="clip0">
<rect width="37" height="36.3" fill="white"/>
</clipPath>
</defs>
</svg>
