<svg width="39" height="32" viewBox="0 0 39 32" fill="none" xmlns="http://www.w3.org/2000/svg">
<path d="M26.3 0H12.8C9.4 0 6.2 1.3 3.8 3.7C1.3 6.1 0 9.3 0 12.6C0 15.9 1.3 19.1 3.8 21.5C6.2 23.9 9.4 25.2 12.8 25.2H18.5L24.5 31.1C25 31.6 25.7 31.9 26.3 31.9C26.6 31.9 27 31.8 27.3 31.7C28.3 31.3 28.9 30.4 28.9 29.3V25C31.6 24.4 34 23 35.9 20.9C37.9 18.6 39 15.6 39 12.6C39 5.7 33.3 0 26.3 0ZM12.8 14.3C11.9 14.3 11.1 13.5 11.1 12.6C11.1 11.7 11.9 10.9 12.8 10.9C13.7 10.9 14.5 11.7 14.5 12.6C14.5 13.6 13.7 14.3 12.8 14.3ZM19.6 14.3C18.7 14.3 17.9 13.5 17.9 12.6C17.9 11.7 18.7 10.9 19.6 10.9C20.5 10.9 21.3 11.7 21.3 12.6C21.2 13.6 20.5 14.3 19.6 14.3ZM26.3 14.3C25.4 14.3 24.6 13.5 24.6 12.6C24.6 11.7 25.4 10.9 26.3 10.9C27.2 10.9 28 11.7 28 12.6C28 13.6 27.2 14.3 26.3 14.3Z" fill="#069B69"/>
</svg>
