<svg width="39" height="32" viewBox="0 0 39 32" fill="none" xmlns="http://www.w3.org/2000/svg">
<path d="M26.3 32C25.6 32 25 31.7 24.5 31.2L18.5 25.3H12.8C9.4 25.3 6.2 24 3.8 21.6C1.3 19.2 0 16 0 12.6C0 9.2 1.3 6.1 3.8 3.7C6.2 1.3 9.4 0 12.8 0H26.3C33.3 0 39 5.7 39 12.6C39 15.7 37.9 18.6 35.9 20.9C34.1 23 31.6 24.4 28.9 25V29.4C28.9 30.4 28.3 31.4 27.3 31.8C27 31.9 26.6 32 26.3 32ZM12.8 1.8C9.9 1.8 7.1 2.9 5.1 5C3 7 1.8 9.8 1.8 12.6C1.8 15.4 3 18.2 5 20.2C7.1 22.3 9.8 23.4 12.8 23.4H19.2L25.7 29.9C25.9 30.1 26.3 30.2 26.6 30.1C26.9 30 27.1 29.7 27.1 29.4V23.5L27.9 23.4C33.2 22.6 37.2 18 37.2 12.7C37.2 6.7 32.3 1.9 26.3 1.9H12.8V1.8Z" fill="#069B69"/>
<path d="M26.3001 14.2999C27.239 14.2999 28.0001 13.5388 28.0001 12.5999C28.0001 11.661 27.239 10.8999 26.3001 10.8999C25.3612 10.8999 24.6001 11.661 24.6001 12.5999C24.6001 13.5388 25.3612 14.2999 26.3001 14.2999Z" fill="#069B69"/>
<path d="M19.5999 14.2999C20.5388 14.2999 21.2999 13.5388 21.2999 12.5999C21.2999 11.661 20.5388 10.8999 19.5999 10.8999C18.661 10.8999 17.8999 11.661 17.8999 12.5999C17.8999 13.5388 18.661 14.2999 19.5999 14.2999Z" fill="#069B69"/>
<path d="M12.8001 14.2999C13.739 14.2999 14.5001 13.5388 14.5001 12.5999C14.5001 11.661 13.739 10.8999 12.8001 10.8999C11.8612 10.8999 11.1001 11.661 11.1001 12.5999C11.1001 13.5388 11.8612 14.2999 12.8001 14.2999Z" fill="#069B69"/>
</svg>
