<svg width="50" height="50" viewBox="0 0 50 50" fill="none" xmlns="http://www.w3.org/2000/svg">
<path d="M25 50C38.8071 50 50 38.8071 50 25C50 11.1929 38.8071 0 25 0C11.1929 0 0 11.1929 0 25C0 38.8071 11.1929 50 25 50Z" fill="#FFD545"/>
<path d="M25 15.4L14 24.4C14 24.4 14 24.4 14 24.5C14 24.5 14 24.5 14 24.6V36.3C14 36.6 14.1 36.9 14.4 37.2C14.6 37.4 14.9 37.6 15.3 37.6H22.6V29.2H27.5V37.6H34.8C35.1 37.6 35.4 37.5 35.7 37.2C35.9 37 36.1 36.7 36.1 36.3V24.6C36.1 24.5 36.1 24.5 36.1 24.5L25 15.4Z" fill="#003725"/>
<path d="M40.2001 22.4L36.0001 18.9V11.1C36.0001 10.9 35.9001 10.8 35.8001 10.7C35.7001 10.6 35.5001 10.5 35.4001 10.5H31.7001C31.5001 10.5 31.4001 10.6 31.3001 10.7C31.2001 10.8 31.1001 11 31.1001 11.1V14.8L26.5001 11C26.1001 10.7 25.6001 10.5 25.1001 10.5C24.5001 10.5 24.1001 10.7 23.6001 11L9.8001 22.4C9.7001 22.5 9.6001 22.6 9.6001 22.8C9.6001 23 9.6001 23.1 9.7001 23.2L10.9001 24.6C11.0001 24.7 11.1001 24.8 11.3001 24.8C11.5001 24.8 11.6001 24.8 11.8001 24.7L25.0001 13.7L38.2001 24.7C38.3001 24.8 38.4001 24.8 38.6001 24.8H38.7001C38.9001 24.8 39.0001 24.7 39.1001 24.6L40.3001 23.2C40.4001 23.1 40.4001 22.9 40.4001 22.8C40.4001 22.7 40.3001 22.5 40.2001 22.4Z" fill="#003725"/>
</svg>
