<svg width="242" height="254" viewBox="0 0 242 254" fill="none" xmlns="http://www.w3.org/2000/svg">
<path d="M145.05 8.61442C146.887 4.26539 151.897 2.17451 156.239 3.93085C160.582 5.77083 162.669 10.7889 160.832 15.138C158.995 19.487 153.985 21.5779 149.643 19.8215C145.3 18.0652 143.296 13.0471 145.05 8.61442ZM144.716 25.5087L124.09 0L131.772 56.8719L144.716 25.5087ZM136.365 58.7119L181.876 23.9197L149.308 27.3487L136.365 58.7119ZM201.583 65.2354C205.925 63.3955 208.013 58.3773 206.259 54.0283C204.422 49.6793 199.412 47.5884 195.07 49.4284C190.727 51.2684 188.64 56.2865 190.393 60.6355C192.147 64.9845 197.157 67.0754 201.583 65.2354ZM182.878 61.0537L186.302 28.436L151.563 74.1008L182.878 61.0537ZM153.484 78.7007L210.184 86.3115L184.798 65.6536L153.484 78.7007ZM92.107 19.9052C96.4493 18.0652 98.5369 13.0471 96.6998 8.69806C94.8627 4.34903 89.8523 2.25815 85.51 4.01449C81.1677 5.85446 79.0801 10.8726 80.9172 15.2216C82.7543 19.5706 87.7647 21.7451 92.107 19.9052ZM92.608 27.4323L60.0407 24.0033L105.635 58.7955L92.608 27.4323ZM110.144 56.8719L117.743 0.0836352L97.1173 25.5087L110.144 56.8719ZM160.916 163.507C159.079 159.158 154.068 157.067 149.726 158.823C145.384 160.663 143.296 165.681 145.133 170.03C146.97 174.379 151.981 176.47 156.323 174.714C160.665 172.874 162.753 167.856 160.916 163.507ZM124.173 178.728L144.799 153.22L131.856 121.856L124.173 178.728ZM181.959 154.725L136.449 120.016L149.392 151.38L181.959 154.725ZM40.4168 113.493C36.0745 115.333 33.9869 120.351 35.7405 124.7C37.5776 129.049 42.588 131.14 46.9303 129.3C51.2726 127.46 53.3602 122.442 51.6066 118.093C49.7695 113.744 44.7591 111.653 40.4168 113.493ZM88.5162 100.195L31.7322 92.5005L57.2015 113.158L88.5162 100.195ZM55.6984 150.292L90.3533 104.711L59.0386 117.675L55.6984 150.292ZM40.5003 65.3191C44.8426 67.159 49.853 65.0682 51.6901 60.7191C53.5273 56.3701 51.4396 51.352 47.0138 49.512C42.6715 47.672 37.6611 49.7629 35.824 54.1119C34.0704 58.461 36.0745 63.4791 40.5003 65.3191ZM57.285 65.6536L31.8157 86.3115L88.5997 78.6171L57.285 65.6536ZM90.5204 74.0171L55.7819 28.436L59.2057 61.0537L90.5204 74.0171ZM190.477 118.093C188.64 122.442 190.727 127.46 195.153 129.3C199.496 131.14 204.506 129.049 206.343 124.7C208.18 120.351 206.092 115.333 201.667 113.493C197.241 111.653 192.231 113.744 190.477 118.093ZM153.484 100.195L184.798 113.158L210.268 92.5005L153.484 100.195ZM151.647 104.795L186.385 150.376L182.961 117.758L151.647 104.795ZM96.8668 170.114C98.7039 165.765 96.6163 160.747 92.274 158.907C87.9317 157.067 82.9213 159.158 81.0842 163.59C79.2471 167.939 81.3347 172.958 85.677 174.797C90.1028 176.554 95.0297 174.463 96.8668 170.114ZM105.718 120.016L60.1242 154.892L92.6915 151.463L105.718 120.016ZM97.2843 153.303L117.91 178.728L110.228 121.94L97.2843 153.303ZM13.9455 238.946C10.4382 238.946 7.84954 236.269 7.84954 232.589C7.84954 228.575 10.3547 225.815 14.1125 225.815C16.6177 225.815 18.7053 227.153 19.7074 229.495H27.5569C26.2208 223.139 20.6259 218.539 14.029 218.539C6.09592 218.539 0.0834961 224.477 0.0834961 232.338C0.0834961 240.2 6.17942 246.306 14.029 246.306C20.5424 246.306 26.0538 241.873 27.5569 235.517H19.7074C18.1208 237.942 16.3671 238.946 13.9455 238.946ZM57.8696 232.338C57.8696 240.284 51.9406 246.222 43.9241 246.222C35.7405 246.222 29.8951 240.451 29.8951 232.338C29.8951 224.393 35.9075 218.455 43.9241 218.455C51.8571 218.455 57.8696 224.393 57.8696 232.338ZM50.02 232.255C50.02 228.659 47.2643 225.731 43.9241 225.731C40.3333 225.731 37.5776 228.575 37.5776 232.255C37.5776 236.102 40.2498 238.946 43.9241 238.946C47.4313 238.946 50.02 236.018 50.02 232.255ZM88.6832 232.338C88.6832 240.284 82.7543 246.222 74.7377 246.222C66.5542 246.222 60.7088 240.451 60.7088 232.338C60.7088 224.393 66.7212 218.455 74.7377 218.455C82.7543 218.455 88.6832 224.393 88.6832 232.338ZM80.9172 232.255C80.9172 228.659 78.1615 225.731 74.8213 225.731C71.2305 225.731 68.4748 228.575 68.4748 232.255C68.4748 236.102 71.147 238.946 74.8213 238.946C78.245 238.946 80.9172 236.018 80.9172 232.255ZM107.389 218.455C104.132 218.455 101.794 219.626 100.625 221.717V210.677H92.8585V245.386H100.625V231C100.625 227.488 102.044 225.815 104.967 225.815C107.639 225.815 109.059 227.655 109.059 231.251V245.469H116.825V230.833C116.825 225.397 116.24 223.306 114.403 221.299C112.733 219.459 110.144 218.455 107.389 218.455ZM141.793 219.375H149.141V245.386H141.793V242.542C140.54 245.051 137.952 246.222 133.776 246.222C125.927 246.222 120.582 240.535 120.582 232.338C120.582 224.142 126.094 218.371 133.943 218.371C137.868 218.371 140.29 219.542 141.793 222.051V219.375ZM141.375 232.338C141.375 228.491 138.62 225.731 134.862 225.731C131.188 225.731 128.432 228.575 128.432 232.422C128.432 236.102 131.271 238.946 134.945 238.946C138.62 238.946 141.375 236.102 141.375 232.338ZM182.627 232.673C182.627 240.367 177.116 246.222 169.851 246.222C166.678 246.222 164.256 245.218 162.168 242.96V254H154.402V219.291H161.751V222.135C163.755 219.542 166.26 218.371 170.018 218.371C177.45 218.455 182.627 224.31 182.627 232.673ZM174.861 232.171C174.861 228.575 171.939 225.731 168.348 225.731C164.757 225.731 161.834 228.659 161.834 232.171C161.834 235.935 164.674 238.946 168.348 238.946C172.106 238.946 174.861 236.102 174.861 232.171ZM214.944 232.673C214.944 240.367 209.433 246.222 202.168 246.222C198.994 246.222 196.573 245.218 194.485 242.96V254H186.719V219.291H194.068V222.135C196.072 219.542 198.577 218.371 202.335 218.371C209.767 218.455 214.944 224.31 214.944 232.673ZM207.178 232.171C207.178 228.575 204.255 225.731 200.665 225.731C197.074 225.731 194.151 228.659 194.151 232.171C194.151 235.935 196.99 238.946 200.665 238.946C204.422 238.946 207.178 236.102 207.178 232.171ZM233.733 219.375L228.723 234.429L223.462 219.375H215.195L224.881 244.047L220.79 254H228.973L242 219.291H233.733V219.375Z" fill="#FFD545"/>
</svg>
