<svg width="33" height="33" viewBox="0 0 33 33" fill="none" xmlns="http://www.w3.org/2000/svg">
<path d="M16.5 33C25.6 33 33 25.6 33 16.5C33 7.4 25.6 0 16.5 0C7.4 0 0 7.4 0 16.5C0 25.6 7.4 33 16.5 33Z" fill="#003725"/>
<path d="M4.8999 28.2C7.8999 31.2 11.9999 33 16.4999 33C20.9999 33 25.0999 31.2 28.0999 28.2C25.6999 24.2 21.3999 21.6 16.4999 21.6C11.5999 21.6 7.1999 24.3 4.8999 28.2Z" fill="#069B69"/>
<path d="M16.5002 19.1C20.3002 19.1 23.3002 16 23.3002 12.3C23.3002 8.5 20.2002 5.5 16.5002 5.5C12.7002 5.5 9.7002 8.6 9.7002 12.3C9.7002 16.1 12.7002 19.1 16.5002 19.1Z" fill="#069B69"/>
</svg>
