<svg width="31" height="38" viewBox="0 0 31 38" fill="none" xmlns="http://www.w3.org/2000/svg">
<g clip-path="url(#clip0)">
<path d="M30.1355 0.927124H0.864542C0.370518 0.927124 0 1.29961 0 1.79625V8.87343V36.9338C0 37.4305 0.370518 37.803 0.864542 37.803H30.1355C30.6295 37.803 31 37.4305 31 36.9338V1.79625C31 1.29961 30.6295 0.927124 30.1355 0.927124ZM1.85259 36.0647V9.86672H29.2709V36.0647H1.85259ZM29.2709 2.78954V8.12847H1.85259V2.78954H29.2709Z" fill="black"/>
<path d="M4.6931 6.51432C5.30699 6.51432 5.80465 6.01402 5.80465 5.39687C5.80465 4.77972 5.30699 4.27942 4.6931 4.27942C4.0792 4.27942 3.58154 4.77972 3.58154 5.39687C3.58154 6.01402 4.0792 6.51432 4.6931 6.51432Z" fill="black"/>
<path d="M8.52171 6.51432C9.1356 6.51432 9.63326 6.01402 9.63326 5.39687C9.63326 4.77972 9.1356 4.27942 8.52171 4.27942C7.90782 4.27942 7.41016 4.77972 7.41016 5.39687C7.41016 6.01402 7.90782 6.51432 8.52171 6.51432Z" fill="black"/>
<path d="M24.9481 6.01773H26.8007C27.1712 6.01773 27.4182 5.76941 27.4182 5.39693C27.4182 5.02444 27.1712 4.77612 26.8007 4.77612H24.9481C24.5776 4.77612 24.3306 5.02444 24.3306 5.39693C24.3306 5.76941 24.5776 6.01773 24.9481 6.01773Z" fill="black"/>
<path d="M19.8846 6.01773H21.7372C22.1077 6.01773 22.3547 5.76941 22.3547 5.39693C22.3547 5.02444 22.1077 4.77612 21.7372 4.77612H19.8846C19.5141 4.77612 19.2671 5.02444 19.2671 5.39693C19.2671 5.76941 19.5141 6.01773 19.8846 6.01773Z" fill="black"/>
<path d="M15.5619 14.0883C10.7452 14.0883 6.79297 18.0614 6.79297 22.9037C6.79297 27.746 10.7452 31.7191 15.5619 31.7191C20.3786 31.7191 24.3308 27.746 24.3308 22.9037C24.3308 18.0614 20.3786 14.0883 15.5619 14.0883ZM15.5619 29.9809C11.7332 29.9809 8.64556 26.8769 8.64556 23.0279C8.64556 19.1789 11.7332 16.0748 15.5619 16.0748C19.3906 16.0748 22.4782 19.1789 22.4782 23.0279C22.4782 26.8769 19.3906 29.9809 15.5619 29.9809Z" fill="black"/>
</g>
<defs>
<clipPath id="clip0">
<rect width="31" height="37" fill="white" transform="translate(0 0.927124)"/>
</clipPath>
</defs>
</svg>
