<svg width="31" height="38" xmlns="http://www.w3.org/2000/svg">
 <defs>
  <clipPath id="clip0">
   <rect id="svg_1" x="0" y="0.927124" fill="white" height="37" width="31"/>
  </clipPath>
 </defs>
 <g>
  <title>background</title>
  <rect fill="none" id="canvas_background" height="402" width="582" y="-1" x="-1"/>
 </g>
 <g>
  <title>Layer 1</title>
  <g id="svg_2" clip-path="url(#clip0)">
   <path id="svg_3" fill="#069900" d="m30.1355,0.92712l-29.27096,0c-0.49402,0 -0.86454,0.37249 -0.86454,0.86913l0,7.07718l0,28.06037c0,0.4967 0.37052,0.8692 0.86454,0.8692l29.27096,0c0.494,0 0.8645,-0.3725 0.8645,-0.8692l0,-35.13755c0,-0.49664 -0.3705,-0.86913 -0.8645,-0.86913zm-28.28291,35.13758l0,-26.19798l27.41831,0l0,26.19798l-27.41831,0zm27.41831,-33.27516l0,5.33893l-27.41831,0l0,-5.33893l27.41831,0z"/>
   <path id="svg_4" fill="#069900" d="m4.6931,6.51432c0.61389,0 1.11155,-0.5003 1.11155,-1.11745c0,-0.61715 -0.49766,-1.11745 -1.11155,-1.11745c-0.6139,0 -1.11156,0.5003 -1.11156,1.11745c0,0.61715 0.49766,1.11745 1.11156,1.11745z"/>
   <path id="svg_5" fill="#069900" d="m8.52171,6.51432c0.61389,0 1.11155,-0.5003 1.11155,-1.11745c0,-0.61715 -0.49766,-1.11745 -1.11155,-1.11745c-0.61389,0 -1.11155,0.5003 -1.11155,1.11745c0,0.61715 0.49766,1.11745 1.11155,1.11745z"/>
   <path id="svg_6" fill="#069900" d="m24.9481,6.01773l1.8526,0c0.3705,0 0.6175,-0.24832 0.6175,-0.6208c0,-0.37249 -0.247,-0.62081 -0.6175,-0.62081l-1.8526,0c-0.3705,0 -0.6175,0.24832 -0.6175,0.62081c0,0.37248 0.247,0.6208 0.6175,0.6208z"/>
   <path id="svg_7" fill="#069900" d="m19.8846,6.01773l1.8526,0c0.3705,0 0.6175,-0.24832 0.6175,-0.6208c0,-0.37249 -0.247,-0.62081 -0.6175,-0.62081l-1.8526,0c-0.3705,0 -0.6175,0.24832 -0.6175,0.62081c0,0.37248 0.247,0.6208 0.6175,0.6208z"/>
   <path id="svg_8" fill="#069900" d="m15.5619,14.0883c-4.8167,0 -8.76893,3.9731 -8.76893,8.8154c0,4.8423 3.95223,8.8154 8.76893,8.8154c4.8167,0 8.7689,-3.9731 8.7689,-8.8154c0,-4.8423 -3.9522,-8.8154 -8.7689,-8.8154zm0,15.8926c-3.8287,0 -6.91634,-3.104 -6.91634,-6.953c0,-3.849 3.08764,-6.9531 6.91634,-6.9531c3.8287,0 6.9163,3.1041 6.9163,6.9531c0,3.849 -3.0876,6.953 -6.9163,6.953z"/>
  </g>
  <path d="m-66.061852,-15.693082c0.25,0.124999 0.415047,0.128227 0.375,0.374997c-0.063316,0.390178 -0.312195,0.61572 -0.375,1.24999c-0.184761,1.865861 0.312859,4.088328 1.624992,6.624948c2.088131,4.036783 4.37154,6.877266 6.999939,10.749914c2.122223,3.126852 3.913506,5.502326 6.62495,7.249942c2.306679,1.48673 4.568958,2.433005 6.499947,2.624979c1.994057,0.198244 3.961712,-0.655502 5.249958,-2.999976c3.142315,-5.71868 3.749969,-12.124903 4.499962,-16.874865l-0.124996,-2.749978l-0.499996,-1.37499l0,0" id="svg_10" stroke-width="1.5" stroke="#000" fill="none"/>
 </g>
</svg>