<svg width="31" height="37" viewBox="0 0 31 37" fill="none" xmlns="http://www.w3.org/2000/svg">
<g clip-path="url(#clip0)">
<path d="M30.1 0H0.9C0.4 0 0 0.4 0 0.9V7.3H31V0.9C31 0.4 30.6 0 30.1 0ZM4.7 5.6C4.1 5.6 3.5 5 3.5 4.4C3.5 3.8 4 3.2 4.7 3.2C5.3 3.2 5.9 3.7 5.9 4.4C5.9 5.1 5.4 5.6 4.7 5.6ZM8.5 5.6C7.9 5.6 7.3 5 7.3 4.4C7.3 3.8 7.8 3.2 8.5 3.2C9.1 3.2 9.7 3.7 9.7 4.4C9.7 5.1 9.2 5.6 8.5 5.6ZM21.7 5H19.8C19.5 5 19.2 4.7 19.2 4.4C19.2 4.1 19.5 3.8 19.8 3.8H21.7C22 3.8 22.3 4.1 22.3 4.4C22.3 4.8 22.1 5 21.7 5ZM26.8 5H24.9C24.6 5 24.3 4.7 24.3 4.4C24.3 4.1 24.6 3.8 24.9 3.8H26.8C27.1 3.8 27.4 4.1 27.4 4.4C27.5 4.8 27.2 5 26.8 5Z" fill="#069B69"/>
<path d="M21.8026 24.7111C23.3562 21.2315 21.7949 17.1513 18.3153 15.5976C14.8357 14.044 10.7555 15.6053 9.2018 19.0849C7.64815 22.5645 9.20945 26.6447 12.6891 28.1984C16.1687 29.752 20.2489 28.1907 21.8026 24.7111Z" fill="#069B69"/>
<path d="M0 8.69995V35.9C0 36.4 0.4 36.7999 0.9 36.7999H30.1C30.6 36.7999 31 36.4 31 35.9V8.69995H0ZM15.5 30.7C10.7 30.7 6.7 26.8 6.7 21.9C6.7 17 10.6 13.1 15.5 13.1C20.3 13.1 24.3 17 24.3 21.9C24.3 26.8 20.3 30.7 15.5 30.7Z" fill="#069B69"/>
</g>
<defs>
<clipPath id="clip0">
<rect width="31" height="36.8" fill="white"/>
</clipPath>
</defs>
</svg>
