<?xml version="1.0" encoding="utf-8"?>
<!-- Generator: Adobe Illustrator 23.0.3, SVG Export Plug-In . SVG Version: 6.00 Build 0)  -->
<svg version="1.1" id="Capa_1" xmlns="http://www.w3.org/2000/svg" xmlns:xlink="http://www.w3.org/1999/xlink" x="0px" y="0px"
	 viewBox="0 0 235 235" style="enable-background:new 0 0 235 235;" xml:space="preserve">
<style type="text/css">
	.st0{fill:#FFFFFF;}
	.st1{fill:#3C3C3B;}
</style>
<g>
	<path class="st0" d="M157.1,230.24l-17.59,4.71c-0.13,0.03-0.25,0.05-0.37,0.05c-0.64,0-1.24-0.42-1.41-1.08l-23.72-85.63
		c-0.11-0.41-0.31-0.63-0.53-0.63c-0.19,0-0.4,0.16-0.59,0.48l-45.1,76.56c-0.27,0.46-0.76,0.72-1.26,0.72
		c-0.25,0-0.5-0.06-0.73-0.19l-15.78-9.11c-0.69-0.4-0.93-1.29-0.54-1.99l43.79-77.32c0.32-0.57,0.17-0.95-0.33-0.95
		c-0.1,0-0.22,0.02-0.36,0.05L6.54,158.15c-0.12,0.03-0.24,0.05-0.36,0.05c-0.65,0-1.25-0.44-1.42-1.08l-4.71-17.6
		c-0.21-0.77,0.26-1.57,1.02-1.78l120.02-32.87l-0.14,0.08c0,0,4.37-1.9,5.66,2.43c0,0.02,0.01,0.03,0.02,0.05l9.25,34.51
		c-0.03,0.14-0.02,0.31,0.03,0.51l22.24,86.03C158.34,229.23,157.88,230.03,157.1,230.24z"/>
	<g>
		<path class="st1" d="M234.95,95.49l-4.71-17.6c-0.21-0.77-1-1.23-1.78-1.04l-86.03,22.24c-0.77,0.2-1.08-0.2-0.69-0.9l43.79-77.33
			c0.39-0.69,0.15-1.59-0.54-1.99l-15.77-9.11c-0.69-0.4-1.59-0.16-1.99,0.52l-45.11,76.56c-0.4,0.69-0.91,0.62-1.12-0.15
			L97.28,1.07c-0.22-0.77-1.02-1.23-1.79-1.02l-17.6,4.71c-0.77,0.2-1.24,1.01-1.04,1.78l22.24,86.03c0.2,0.77-0.21,1.08-0.9,0.69
			L20.87,49.47c-0.7-0.39-1.59-0.15-1.99,0.54L9.77,65.79c-0.4,0.69-0.16,1.58,0.52,1.99l70.25,41.39l43.33-11.87
			c0.57-0.15,1.15-0.23,1.73-0.23c1.13,0,2.26,0.3,3.26,0.87c1.51,0.87,2.62,2.3,3.07,3.99l1.61,6.02l0.11,0.4l8.54,31.88
			c0.1,0.38,0.17,0.76,0.2,1.15l1.07,4.14l70.66,40.01c0.69,0.39,1.59,0.15,1.99-0.54l9.11-15.77c0.4-0.69,0.17-1.59-0.52-1.99
			l-76.56-45.11c-0.69-0.4-0.62-0.91,0.15-1.12l85.64-23.72C234.69,97.06,235.16,96.26,234.95,95.49z"/>
	</g>
</g>
</svg>
