<?xml version="1.0" encoding="utf-8"?>
<!-- Generator: Adobe Illustrator 23.0.3, SVG Export Plug-In . SVG Version: 6.00 Build 0)  -->
<svg version="1.1" id="Capa_1" xmlns="http://www.w3.org/2000/svg" xmlns:xlink="http://www.w3.org/1999/xlink" x="0px" y="0px"
	 viewBox="0 0 334.47 43.35" style="enable-background:new 0 0 334.47 43.35;" xml:space="preserve">
<style type="text/css">
	.st0{fill:#FFFFFF;}
	.st1{fill:#3C3C3B;}
</style>
<g>
	<path class="st0" d="M11.51,43.35c-4.04,0-8.91-0.76-12.51-2.21l0.88-4.42c3.85,1.2,7.9,1.83,11.75,1.83
		c6.76,0,8.15-1.77,8.15-6.57c0-5.69-0.06-6.19-8.72-8.15C0.9,21.55-0.3,19.59-0.3,10.87C-0.3,3.54,2.73,0,13.15,0
		c3.67,0,8.03,0.51,11.37,1.39L24.09,6c-3.35-0.76-7.33-1.2-10.8-1.2c-6.89,0-8.15,1.39-8.15,6.26c0,5.81,0,6.07,8.34,8.15
		c11.18,2.78,11.75,4.42,11.75,12.64C25.22,39.18,23.08,43.35,11.51,43.35z"/>
	<path class="st0" d="M38.6,42.72h-5.43l0-42.09l5.43,0L38.6,42.72z M46.05,21.3l16.68,21.42l-6.51,0L39.92,21.3L55.09,0.63l6.38,0
		L46.05,21.3z"/>
	<path class="st0" d="M93.26,0.63l5.69,0L84.98,30.02l0,12.7h-5.43l0-12.7L65.58,0.63l5.69,0l10.99,23.51L93.26,0.63z"/>
	<path class="st1" d="M110.38,37.85l18.26,0l0,4.87l-23.7,0l0-42.09l5.43,0L110.38,37.85z"/>
	<path class="st1" d="M170.1,42.72l-5.5,0l-3.48-10.11l-17.88,0l-3.41,10.11l-5.5,0l14.22-42.09l7.33,0L170.1,42.72z M152.21,4.55
		l-7.52,23.32l15.04,0L152.21,4.55z"/>
	<path class="st1" d="M177.24,42.72l0-42.09l16.24,0c6.64,0,9.92,2.97,9.92,8.53l0,4.86c0,3.22-1.07,5.62-4.8,7.01
		c3.66,0.63,6.19,3.1,6.19,7.58l0,5.06c0,5.88-4.11,9.04-10.43,9.04L177.24,42.72z M197.96,9.29c0-2.72-1.52-3.98-4.8-3.98l-10.49,0
		l0,13.65l9.61,0c4.11,0,5.69-1.9,5.69-4.93L197.96,9.29z M199.35,28.81c0-3.35-1.9-5.18-6.07-5.18l-10.62,0l0,14.41l10.93,0
		c3.85,0,5.75-1.64,5.75-4.8L199.35,28.81z"/>
	<g>
		<path class="st0" d="M220.16,13.4c0,2.52,0.98,3.33,3.92,3.33c1.08,0,2.84-0.14,4.22-0.38l0.24,2c-1.3,0.3-3.19,0.49-4.54,0.49
			c-4.41,0-6.17-1.89-6.17-5.3l0-7.95c0-3.41,1.76-5.3,6.17-5.3c1.35,0,3.25,0.19,4.54,0.49l-0.24,2c-1.38-0.24-3.14-0.38-4.22-0.38
			c-2.95,0-3.92,0.81-3.92,3.33L220.16,13.4z"/>
		<path class="st0" d="M249.42,13.37c0,3-1.87,5.46-6.52,5.46s-6.52-2.46-6.52-5.46l0-7.63c0-3,1.87-5.46,6.52-5.46
			c4.65,0,6.52,2.46,6.52,5.46L249.42,13.37z M238.71,13.32c0,2.22,1.35,3.46,4.19,3.46c2.84,0,4.19-1.24,4.19-3.46l0-7.52
			c0-2.22-1.35-3.46-4.19-3.46s-4.19,1.24-4.19,3.46L238.71,13.32z"/>
		<path class="st0" d="M264.91,0.55c4.41,0,5.79,2.3,5.79,5.17l0,7.68c0,2.87-1.38,5.17-5.79,5.17l-6.3,0l0-18.01L264.91,0.55z
			 M260.93,16.48l3.9,0c2.73,0,3.54-1.14,3.54-3.25l0-7.36c0-2.11-0.81-3.25-3.54-3.25l-3.9,0L260.93,16.48z"/>
		<path class="st0" d="M279.74,0.55l10.6,0v2.08l-8.28,0v5.65l7.68,0v2.08l-7.68,0l0,6.11l8.3,0v2.08l-10.63,0L279.74,0.55z"/>
		<path class="st0" d="M306.08,12.05l-4.41,0v6.52l-2.33,0l0-18.01l6.87,0c3.87,0,5.22,1.68,5.22,4.44v2.6
			c0,2.14-0.78,3.6-2.87,4.19l4.68,6.79l-2.68,0L306.08,12.05z M306.13,2.63l-4.46,0l0,7.36l4.46,0c2.22,0,2.97-0.62,2.97-2.38
			l0-2.6C309.11,3.23,308.35,2.63,306.13,2.63z"/>
		<path class="st0" d="M326.11,18.84c-1.73,0-3.81-0.32-5.36-0.95l0.38-1.89c1.65,0.51,3.38,0.78,5.03,0.78
			c2.89,0,3.49-0.76,3.49-2.81c0-2.43-0.03-2.65-3.73-3.49c-4.36-0.97-4.87-1.81-4.87-5.55c0-3.14,1.3-4.65,5.76-4.65
			c1.57,0,3.43,0.22,4.87,0.59l-0.19,1.97c-1.43-0.32-3.14-0.51-4.63-0.51c-2.95,0-3.49,0.59-3.49,2.68c0,2.49,0,2.6,3.57,3.49
			c4.79,1.19,5.03,1.89,5.03,5.41C331.98,17.05,331.06,18.84,326.11,18.84z"/>
		<path class="st0" d="M232.01,42.8h-2.35l-1.49-4.33h-7.66l-1.46,4.33l-2.35,0l6.09-18.02l3.14,0L232.01,42.8z M224.36,26.46
			l-3.22,9.98l6.44,0L224.36,26.46z"/>
		<path class="st0" d="M237.28,37.63c0,2.52,0.97,3.33,3.92,3.33c1.08,0,2.84-0.13,4.22-0.38l0.24,2c-1.3,0.3-3.19,0.49-4.54,0.49
			c-4.41,0-6.17-1.89-6.17-5.3l0-7.95c0-3.41,1.76-5.3,6.17-5.3c1.35,0,3.25,0.19,4.54,0.49l-0.24,2c-1.38-0.24-3.14-0.38-4.22-0.38
			c-2.95,0-3.92,0.81-3.92,3.33L237.28,37.63z"/>
		<path class="st0" d="M263.89,42.8h-2.35l-1.49-4.33l-7.66,0l-1.46,4.33h-2.35l6.09-18.02l3.14,0L263.89,42.8z M256.24,26.46
			l-3.22,9.98l6.44,0L256.24,26.46z"/>
		<path class="st0" d="M273.73,24.78c4.41,0,5.79,2.3,5.79,5.17l0,7.68c0,2.87-1.38,5.17-5.79,5.17h-6.3l0-18.02L273.73,24.78z
			 M269.76,40.72l3.9,0c2.73,0,3.54-1.14,3.54-3.25v-7.36c0-2.11-0.81-3.25-3.54-3.25l-3.9,0L269.76,40.72z"/>
		<path class="st0" d="M284.06,24.78l10.6,0l0,2.08l-8.28,0l0,5.65l7.68,0v2.08h-7.68l0,6.11l8.3,0v2.08l-10.63,0L284.06,24.78z"/>
		<path class="st0" d="M301.47,28.19l-0.35,14.61h-2.24l0.62-18.02l2.95,0l5.19,13.93l5.19-13.93l2.95,0l0.62,18.02l-2.25,0
			l-0.35-14.61l-4.6,12.28h-3.14L301.47,28.19z"/>
		<path class="st0" d="M331.03,24.78h2.43l-5.98,12.58l0,5.44h-2.33v-5.44l-5.98-12.58l2.43,0l4.71,10.06L331.03,24.78z"/>
	</g>
</g>
</svg>
