<?xml version="1.0" encoding="utf-8"?>
<!-- Generator: Adobe Illustrator 23.0.3, SVG Export Plug-In . SVG Version: 6.00 Build 0)  -->
<svg version="1.1" id="Capa_1" xmlns="http://www.w3.org/2000/svg" xmlns:xlink="http://www.w3.org/1999/xlink" x="0px" y="0px"
	 viewBox="0 0 92.36 106.61" style="enable-background:new 0 0 92.36 106.61;" xml:space="preserve">
<style type="text/css">
	.st0{fill:#3C3C3B;}
</style>
<g>
	<path class="st0" d="M76.38,26.38l2.55-2.55l2.3,2.3c0.05,0.05,0.1,0.09,0.15,0.13c0.03,0.03,0.07,0.05,0.1,0.07
		c0.01,0.01,0.03,0.02,0.04,0.03c0.42,0.28,0.94,0.37,1.43,0.24c0.62-0.16,1.1-0.65,1.26-1.26c0.16-0.62-0.02-1.27-0.47-1.72
		l-3.39-3.39c-0.1-0.13-0.21-0.24-0.33-0.33l-3.39-3.39c-0.7-0.68-1.81-0.68-2.5,0.01c-0.69,0.69-0.69,1.8-0.01,2.5l0,0l2.3,2.3
		l-2.44,2.44l-0.32,0.32c-6.68-5.26-14.7-8.57-23.15-9.55v-3.87h5.33c0.47,0,0.92-0.19,1.26-0.52c0.33-0.33,0.52-0.78,0.52-1.26
		V5.33c0-2.94-2.39-5.33-5.33-5.33H38.08c-2.94,0-5.33,2.39-5.33,5.33v3.55c0,0.47,0.19,0.92,0.52,1.26
		c0.33,0.33,0.78,0.52,1.26,0.52h5.33v3.87c-8.45,0.98-16.46,4.28-23.15,9.55l-2.76-2.76l2.3-2.3c0.69-0.69,0.68-1.81-0.01-2.5
		c-0.69-0.69-1.81-0.69-2.5-0.01l-7.1,7.1c-0.46,0.45-0.64,1.1-0.47,1.72c0.16,0.62,0.65,1.1,1.26,1.26
		c0.49,0.13,1.01,0.04,1.43-0.24c0.02-0.01,0.03-0.02,0.05-0.03c0.03-0.02,0.06-0.05,0.1-0.07c0.05-0.04,0.1-0.08,0.15-0.13l2.3-2.3
		l2.55,2.55C4.43,35.11-1,47.45-1,60.39c-0.02,21.16,14.35,39.62,34.86,44.8s41.92-4.22,51.97-22.84S91.98,40.67,76.38,26.38z"/>
</g>
</svg>
