<?xml version="1.0"?>
<svg xmlns="http://www.w3.org/2000/svg" id="Outline" viewBox="0 0 512 512" width="512" height="512"><path d="M56,416H456a40.045,40.045,0,0,0,40-40V136a40.045,40.045,0,0,0-40-40H56a40.045,40.045,0,0,0-40,40V376A40.045,40.045,0,0,0,56,416ZM32,136a24.028,24.028,0,0,1,24-24H456a24.028,24.028,0,0,1,24,24V376a24.028,24.028,0,0,1-24,24H56a24.028,24.028,0,0,1-24-24Z"/><path d="M88,224h32a24.028,24.028,0,0,0,24-24V168a24.028,24.028,0,0,0-24-24H88a24.028,24.028,0,0,0-24,24v32A24.028,24.028,0,0,0,88,224Zm0-64h32a8.009,8.009,0,0,1,8,8v8h-8a8,8,0,0,0,0,16h8v8a8.009,8.009,0,0,1-8,8H88a8.009,8.009,0,0,1-8-8v-8h8a8,8,0,0,0,0-16H80v-8A8.009,8.009,0,0,1,88,160Z"/><path d="M72,336H192a8,8,0,0,0,0-16H72a8,8,0,0,0,0,16Z"/><path d="M72,368l160,.006h0a8,8,0,0,0,0-16L72,352h0a8,8,0,0,0,0,16Z"/><path d="M384,384a39.736,39.736,0,0,0,19.99-5.376,40,40,0,1,0,0-69.248A39.992,39.992,0,1,0,384,384Zm64-40a23.989,23.989,0,0,1-31.221,22.884,39.87,39.87,0,0,0,0-45.767A23.986,23.986,0,0,1,448,344Zm-64-24a24,24,0,1,1-24,24A24.028,24.028,0,0,1,384,320Z"/><path d="M428.422,223.155a7.993,7.993,0,0,0,10.733-3.577C439.517,218.855,448,201.686,448,184s-8.483-34.855-8.845-35.578a8,8,0,0,0-14.316,7.144C424.911,155.711,432,170.16,432,184s-7.089,28.289-7.155,28.422A8,8,0,0,0,428.422,223.155Z"/><path d="M362.343,205.657a8,8,0,0,0,11.314,0C374.716,204.6,384,195,384,184s-9.284-20.6-10.343-21.657a8,8,0,0,0-11.336,11.292C364.611,175.962,368,180.866,368,184s-3.389,8.038-5.657,10.343A8,8,0,0,0,362.343,205.657Z"/><path d="M72,272h48a8,8,0,0,0,0-16H72a8,8,0,0,0,0,16Z"/><path d="M168,272h48a8,8,0,0,0,0-16H168a8,8,0,0,0,0,16Z"/><path d="M264,272h48a8,8,0,0,0,0-16H264a8,8,0,0,0,0,16Z"/><path d="M360,272h48a8,8,0,0,0,0-16H360a8,8,0,0,0,0,16Z"/><path d="M405.657,154.343a8,8,0,0,0-11.314,11.314c.056.057,5.657,6.2,5.657,18.343s-5.512,18.184-5.746,18.435l.089-.092h0a8,8,0,0,0,11.314,11.314h0C406.716,212.6,416,202.771,416,184S406.716,155.4,405.657,154.343Z"/></svg>
