<?xml version="1.0" encoding="iso-8859-1"?>
<!-- Generator: Adobe Illustrator 19.0.0, SVG Export Plug-In . SVG Version: 6.00 Build 0)  -->
<svg version="1.1" id="Capa_1" xmlns="http://www.w3.org/2000/svg" xmlns:xlink="http://www.w3.org/1999/xlink" x="0px" y="0px"
	 viewBox="0 0 490.667 490.667" style="enable-background:new 0 0 490.667 490.667;" xml:space="preserve">
<g>
	<g>
		<path d="M245.333,245.333C180.651,245.333,128,297.963,128,362.667S180.651,480,245.333,480s117.333-52.629,117.333-117.333
			S310.016,245.333,245.333,245.333z M245.333,458.667c-52.928,0-96-43.072-96-96c0-52.928,43.072-96,96-96s96,43.072,96,96
			C341.333,415.595,298.261,458.667,245.333,458.667z"/>
	</g>
</g>
<g>
	<g>
		<path d="M260.416,362.667l35.115-35.115c4.16-4.16,4.16-10.923,0-15.083s-10.923-4.16-15.083,0l-42.667,42.667
			c-4.16,4.16-4.16,10.923,0,15.083l42.667,42.667c2.091,2.069,4.821,3.115,7.552,3.115c2.731,0,5.461-1.045,7.531-3.136
			c4.16-4.16,4.16-10.923,0-15.083L260.416,362.667z"/>
	</g>
</g>
<g>
	<g>
		<path d="M309.333,352h-64c-5.888,0-10.667,4.779-10.667,10.667c0,5.888,4.779,10.667,10.667,10.667h64
			c5.888,0,10.667-4.779,10.667-10.667C320,356.779,315.221,352,309.333,352z"/>
	</g>
</g>
<g>
	<g>
		<path d="M437.333,10.667h-384C23.915,10.667,0,34.603,0,64v234.667C0,328.064,23.915,352,53.333,352H96
			c5.888,0,10.667-4.779,10.667-10.667c0-5.888-4.779-10.667-10.667-10.667H53.333c-17.643,0-32-14.357-32-32V64
			c0-17.643,14.357-32,32-32h384c17.643,0,32,14.357,32,32v234.667c0,17.643-14.357,32-32,32h-42.667
			c-5.888,0-10.667,4.779-10.667,10.667c0,5.888,4.779,10.667,10.667,10.667h42.667c29.419,0,53.333-23.936,53.333-53.333V64
			C490.667,34.603,466.752,10.667,437.333,10.667z"/>
	</g>
</g>
<g>
	<g>
		<path d="M445.995,57.749c-3.456-4.779-10.112-5.845-14.891-2.389l-165.76,119.701c-12.117,8.768-27.883,8.768-40,0L59.584,55.36
			c-4.779-3.435-11.435-2.411-14.891,2.389c-3.456,4.779-2.389,11.456,2.389,14.912l165.76,119.701
			c9.728,7.019,21.099,10.517,32.491,10.517s22.763-3.52,32.512-10.539L443.605,72.64C448.363,69.205,449.451,62.528,445.995,57.749
			z"/>
	</g>
</g>
<g>
	<g>
		<path d="M167.531,184.469c-4.16-4.16-10.923-4.16-15.083,0L45.781,291.136c-4.16,4.16-4.16,10.923,0,15.083
			c2.091,2.069,4.821,3.115,7.552,3.115s5.461-1.045,7.531-3.115l106.667-106.667C171.691,195.392,171.691,188.629,167.531,184.469z
			"/>
	</g>
</g>
<g>
	<g>
		<path d="M444.864,291.136L338.197,184.469c-4.16-4.16-10.923-4.16-15.083,0c-4.16,4.16-4.16,10.923,0,15.083l106.667,106.667
			c2.091,2.069,4.821,3.115,7.552,3.115c2.731,0,5.461-1.045,7.531-3.115C449.024,302.059,449.024,295.296,444.864,291.136z"/>
	</g>
</g>
<g>
	<g>
		<path d="M196.416,362.667l35.115-35.115c4.16-4.16,4.16-10.923,0-15.083s-10.923-4.16-15.083,0l-42.667,42.667
			c-4.16,4.16-4.16,10.923,0,15.083l42.667,42.667c2.091,2.069,4.821,3.115,7.552,3.115c2.731,0,5.461-1.045,7.531-3.136
			c4.16-4.16,4.16-10.923,0-15.083L196.416,362.667z"/>
	</g>
</g>
<g>
</g>
<g>
</g>
<g>
</g>
<g>
</g>
<g>
</g>
<g>
</g>
<g>
</g>
<g>
</g>
<g>
</g>
<g>
</g>
<g>
</g>
<g>
</g>
<g>
</g>
<g>
</g>
<g>
</g>
</svg>
