<svg height="512pt" viewBox="-8 0 512 512" width="512pt" xmlns="http://www.w3.org/2000/svg"><path d="m467.835938 334.714844c-32.734376 88.050781-117.863282 147.207031-211.835938 147.207031-124.574219 0-225.921875-101.347656-225.921875-225.921875s101.347656-225.921875 225.921875-225.921875c59.648438 0 115.472656 22.914063 157.375 63.769531l-29.28125-2.570312-2.625 29.964844 78.816406 6.910156 6.910156-78.816406-29.964843-2.628907-2.296875 26.238281c-18.902344-18.457031-40.640625-34.035156-64.140625-45.839843-35.804688-17.984375-74.425781-27.105469-114.792969-27.105469-68.378906 0-132.667969 26.628906-181.019531 74.980469-48.351563 48.351562-74.980469 112.640625-74.980469 181.019531s26.628906 132.667969 74.980469 181.019531c48.351562 48.351563 112.640625 74.980469 181.019531 74.980469 53.28125 0 104.355469-16.210938 147.703125-46.882812 42.382813-29.988282 74.308594-71.457032 92.324219-119.921876zm0 0"/><path d="m271.019531 163.164062h-30.078125v107.875h75.175782v-30.078124h-45.097657zm0 0"/><path d="m255.621094 98.886719c-86.632813 0-157.113282 70.480469-157.113282 157.113281s70.480469 157.113281 157.113282 157.113281c86.632812 0 157.113281-70.480469 157.113281-157.113281s-70.480469-157.113281-157.113281-157.113281zm0 284.148437c-70.046875 0-127.035156-56.984375-127.035156-127.035156s56.988281-127.035156 127.035156-127.035156c70.050781 0 127.035156 56.984375 127.035156 127.035156s-56.984375 127.035156-127.035156 127.035156zm0 0"/></svg>