<svg xmlns="http://www.w3.org/2000/svg" xmlns:xlink="http://www.w3.org/1999/xlink" version="1.1" x="0px" y="0px" viewBox="0 0 100 125" style="enable-background:new 0 0 100 100;" xml:space="preserve"><g><path d="M49.84776,59.01765c-14.38773,0-21.0556-18.63503-21.19324-31.91669c-0.00983-0.93008,0.73541-1.69204,1.66549-1.70089   c0.0059-0.00098,0.0118-0.00098,0.0177-0.00098c0.92221,0,1.67336,0.74229,1.68319,1.66648   c0.09832,9.34603,4.58748,28.58374,17.8249,28.58374c0.03736,0,0.07472,0,0.11208,0   c13.39079-0.10815,17.92322-19.30457,18.02153-28.58374c0.00983-0.92418,0.76098-1.66648,1.68319-1.66648   c0.0059,0,0.0118,0,0.0177,0.00098c0.93008,0.00885,1.67532,0.77081,1.66549,1.70089   c-0.12781,12.27391-6.0406,31.79281-21.36038,31.91473C49.94017,59.01568,49.89298,59.01765,49.84776,59.01765z"/><path d="M10.64674,99.9982c-0.93008,0-1.68319-0.75311-1.68319-1.68319c0-11.5326,3.01834-22.0604,8.28224-28.88165   c2.91412-3.79111,7.23811-4.38494,11.05281-4.90602c3.18941-0.43653,6.19988-0.84946,8.34319-2.92395   c1.60453-1.51999,1.52785-4.61107,1.26239-8.4946c-0.06489-0.92615,0.6371-1.73038,1.56521-1.7933   c0.87306-0.08652,1.73038,0.6371,1.79331,1.56521c0.27135,3.95432,0.5781,8.43561-2.29079,11.15507   c-2.92199,2.82957-6.79765,3.35851-10.21712,3.82847c-3.63183,0.49551-6.76815,0.92615-8.84068,3.62397   c-4.81951,6.24707-7.58418,16.02373-7.58418,26.82681C12.32993,99.24509,11.57682,99.9982,10.64674,99.9982z"/><path d="M89.35355,99.9982c-0.93008,0-1.68319-0.75311-1.68319-1.68319c0-10.80309-2.76467-20.57974-7.58221-26.82485   c-2.07646-2.70175-5.21671-3.13042-8.85641-3.6279c-3.42341-0.46799-7.30693-0.99693-10.26628-3.83437   c-2.804-2.72929-2.51102-7.06704-2.22787-11.26125c0.06096-0.92811,0.86912-1.65369,1.7933-1.56521   c0.92811,0.06292,1.62813,0.86519,1.56521,1.7933c-0.28315,4.21387-0.35394,7.09063,1.20734,8.61258   c2.16101,2.06859,5.18525,2.48152,8.38449,2.91805c3.8206,0.52305,8.15246,1.11491,11.06854,4.90996   c5.26193,6.81927,8.28027,17.34708,8.28027,28.87968C91.03674,99.24509,90.28363,99.9982,89.35355,99.9982z"/><path d="M89.35355,99.9982h-78.7068c-0.93008,0-1.68319-0.75311-1.68319-1.68319c0-0.93008,0.75311-1.68319,1.68319-1.68319   h78.7068c0.93008,0,1.68319,0.75311,1.68319,1.68319C91.03674,99.24509,90.28363,99.9982,89.35355,99.9982z"/><path d="M50.00113,30.2353c-8.23701,0-16.47402-0.74623-24.48097-2.23868c-0.91435-0.17107-1.51605-1.05003-1.34694-1.96438   c0.17107-0.91435,1.04806-1.5131,1.96438-1.34694c15.60883,2.91019,32.11628,2.91019,47.72511,0   c0.90845-0.16419,1.7933,0.4326,1.96438,1.34694c0.16911,0.91435-0.4326,1.79331-1.34695,1.96438   C66.47318,29.48908,58.23617,30.2353,50.00113,30.2353z"/><path d="M53.28296,13.98446h-6.56562c-1.01463,0-1.89949-0.34903-2.55821-1.00775c-0.76097-0.76097-1.05592-1.85328-0.77081-2.8512   l1.98404-7.77394c0.38541-1.41675,1.72645-2.35175,3.34278-2.35175h2.57001c1.61633,0,2.95738,0.935,3.33492,2.32618   l2.00567,7.84472c0.27135,0.95269-0.0236,2.045-0.78457,2.80597C55.18244,13.63544,54.29759,13.98446,53.28296,13.98446z    M46.7429,10.59645l6.52039,0.01966l-1.84836-7.23516c-0.03343-0.00688-0.07669-0.01278-0.12978-0.01278h-2.57001   c-0.05309,0-0.09635,0.0059-0.12978,0.01278L46.7429,10.59645z"/><path d="M39.87053,10.15993c-0.13568,0-0.27332-0.01671-0.41096-0.05112c-0.90255-0.22515-1.4492-1.1395-1.22503-2.04205   l1.14245-4.56585c0.3913-1.43641,1.76381-2.41664,3.34671-2.41664h4.28073c0.93008,0,1.68319,0.75409,1.68319,1.68417   s-0.75311,1.68417-1.68319,1.68417h-4.28073l-1.2211,4.43214C41.30989,9.64966,40.62364,10.15993,39.87053,10.15993z"/><path d="M29.25228,27.45391c-0.93008,0-1.68319-0.75409-1.68319-1.68417c0-11.61125,4.19617-19.00077,12.47645-21.96208   c0.87502-0.31265,1.83853,0.14354,2.15118,1.01857c0.31462,0.87601-0.14157,1.83951-1.01856,2.15315   c-6.89203,2.46481-10.24268,8.6116-10.24268,18.79037C30.93547,26.69982,30.18236,27.45391,29.25228,27.45391z"/><path d="M60.12976,10.15993c-0.75311,0-1.43936-0.51027-1.63206-1.27517L57.35525,4.3189l-4.35938,0.13371   c-0.93008,0-1.68319-0.75409-1.68319-1.68417s0.75311-1.68417,1.68319-1.68417h4.28073c1.58291,0,2.95541,0.98022,3.33689,2.38321   l1.15228,4.59928c0.22416,0.90255-0.32248,1.8169-1.22503,2.04205C60.40308,10.14321,60.26544,10.15993,60.12976,10.15993z"/><path d="M70.74802,27.45391c-0.93008,0-1.68319-0.75409-1.68319-1.68417c0-10.18369-3.36835-16.32949-10.29774-18.78939   c-0.87502-0.31167-1.33318-1.27419-1.0225-2.1502c0.31265-0.87601,1.27222-1.33318,2.15118-1.02348   c8.31763,2.95443,12.53544,10.34395,12.53544,21.96307C72.43121,26.69982,71.67809,27.45391,70.74802,27.45391z"/><path d="M27.02638,100.00017c-0.15731,0-0.31658-0.0236-0.47585-0.07079c-0.89272-0.26153-1.402-1.19947-1.13851-2.09023   l5.99341-20.32019c0.2104-0.71574,0.86716-1.20733,1.61437-1.20733H66.9805c0.93008,0,1.68319,0.75311,1.68319,1.68319   c0,0.93008-0.75311,1.68319-1.68319,1.68319H34.27825l-5.6375,19.11285C28.42445,99.52431,27.75393,100.00017,27.02638,100.00017z"/><path d="M72.97392,100.00017c-0.72755,0-1.39807-0.47585-1.61437-1.2093l-5.99341-20.32018   c-0.26349-0.89075,0.24579-1.8287,1.13851-2.09023c0.89468-0.26349,1.82673,0.2458,2.09022,1.13851l5.99342,20.32019   c0.26349,0.89075-0.24579,1.8287-1.13851,2.09023C73.2905,99.97657,73.13122,100.00017,72.97392,100.00017z"/><path d="M66.9805,79.67998c-0.2222,0-0.44833-0.04523-0.66462-0.13764c-0.85339-0.36771-1.24863-1.35677-0.88289-2.21214   l5.02203-11.69974c0.36575-0.85339,1.36071-1.24273,2.21214-0.88289c0.85339,0.36771,1.24863,1.35677,0.88289,2.21214   l-5.02203,11.69974C68.25469,79.29654,67.63332,79.67998,66.9805,79.67998z"/><path d="M33.01979,79.67998c-0.65282,0-1.27419-0.38344-1.54751-1.02053l-5.02204-11.69974   c-0.36574-0.85536,0.0295-1.84443,0.88289-2.21214c0.84946-0.36181,1.8464,0.0295,2.21214,0.88289L34.5673,77.3302   c0.36574,0.85536-0.0295,1.84443-0.88289,2.21214C33.46812,79.63475,33.24199,79.67998,33.01979,79.67998z"/><path d="M59.78959,89.15382h-19.6359c-0.93008,0-1.68319-0.75311-1.68319-1.68319c0-0.93008,0.75311-1.68319,1.68319-1.68319   h19.6359c0.93008,0,1.68319,0.75311,1.68319,1.68319C61.47277,88.40071,60.71967,89.15382,59.78959,89.15382z"/><path d="M82.16264,65.58327c-0.18484,0-0.37164-0.03146-0.55648-0.09635c-0.87698-0.30675-1.33907-1.26829-1.03233-2.14528   l6.92349-19.76469l-10.3587-3.67018l-7.25777,20.55615c-0.30872,0.87896-1.27419,1.34498-2.14725,1.02643   c-0.87699-0.30872-1.33711-1.27026-1.02644-2.14725l7.81818-22.14594c0.14748-0.42178,0.45815-0.76688,0.86126-0.95859   c0.40506-0.19467,0.86716-0.2163,1.28795-0.06784l13.52844,4.79395c0.87502,0.3097,1.33318,1.26829,1.02643,2.14331   l-7.478,21.34761C83.50957,65.1487,82.85872,65.5813,82.16264,65.58327z"/><path d="M87.47176,72.20394c-0.18483,0-0.3736-0.03146-0.55647-0.09635c-0.87895-0.30675-1.34104-1.26829-1.03233-2.14528   l10.2879-29.3516l-10.38229-3.66428c-0.3854,0.66069-1.18177,0.99595-1.94668,0.76491   c-0.89075-0.27037-1.39217-1.21029-1.12081-2.10006l0.39916-1.31253c0.13371-0.43948,0.44047-0.80522,0.85143-1.01266   c0.41096-0.20745,0.88288-0.23695,1.31941-0.08554l13.58546,4.79394c0.87502,0.30872,1.33514,1.26829,1.0284,2.14528   L89.06056,71.07526C88.81673,71.76938,88.16785,72.20394,87.47176,72.20394z"/><path d="M19.20623,65.29421c-0.23203,0-0.46799-0.04719-0.69412-0.14944l-1.25649-0.57024   c-0.58007-0.26349-0.96154-0.83176-0.9871-1.46689l-0.07275-1.86803l-1.84443-0.8298   c-0.59384-0.26743-0.98121-0.85143-0.993-1.50229L13.32294,57.069l-3.01637-1.33515   c-0.59187-0.26152-0.98121-0.84159-1.00087-1.48852c-0.01966-0.6489,0.33428-1.24863,0.91042-1.54751l15.12511-7.81818   c0.39327-0.2045,0.85536-0.24383,1.28402-0.10913c0.42473,0.13568,0.77867,0.43456,0.98514,0.83176l7.01984,13.58448   c0.4267,0.82587,0.10225,1.84246-0.72361,2.26916c-0.82783,0.4267-1.84246,0.10422-2.26916-0.72361l-6.24707-12.08908   l-10.50814,5.43301l0.78457,0.34804c0.59777,0.26546,0.98907,0.85339,1.00087,1.50622l0.03736,1.84443l1.8228,0.81996   c0.58204,0.26152,0.96744,0.83176,0.993,1.46886l0.07276,1.87392l0.31068,0.13961c0.84749,0.3854,1.2211,1.38234,0.83766,2.22984   C20.45879,64.92847,19.84726,65.29421,19.20623,65.29421z"/><path d="M24.00411,54.33578c-0.6076,0-1.19554-0.32838-1.49442-0.90452l-2.11185-4.05263   c-0.43063-0.82586-0.11012-1.84246,0.71378-2.27211c0.8298-0.4267,1.84246-0.10913,2.27113,0.71575l2.11185,4.05165   c0.43063,0.82586,0.11012,1.84246-0.71378,2.27113C24.53109,54.27483,24.26563,54.33578,24.00411,54.33578z"/><path d="M18.58094,54.56388c-0.60563,0-1.18964-0.32641-1.49049-0.89862l-1.08346-2.05483   c-0.43456-0.82193-0.11995-1.8405,0.70395-2.27309c0.8239-0.44046,1.84246-0.11798,2.27309,0.70395l1.08346,2.05483   c0.43456,0.82193,0.11995,1.8405-0.70395,2.27309C19.11382,54.50293,18.84443,54.56388,18.58094,54.56388z"/><path d="M9.44727,56.67574c-0.17107,0-0.34411-0.02556-0.51125-0.07866c-0.42473-0.13568-0.78064-0.43456-0.98514-0.83176   L1.72938,43.72245c-0.4267-0.82586-0.10225-1.84148,0.72361-2.26818l18.20834-9.41682   c0.39327-0.2045,0.85732-0.24383,1.28402-0.10913c0.42473,0.13568,0.78064,0.43456,0.98514,0.83176l6.22151,12.04287   c0.4267,0.82586,0.10225,1.84148-0.72361,2.26818l-18.20834,9.4178C9.98015,56.61281,9.7147,56.67574,9.44727,56.67574z    M5.49492,43.67231l4.67596,9.05107l15.21556-7.87029l-4.67596-9.05107L5.49492,43.67231z"/><path d="M12.01728,47.71609c-0.60957,0-1.19947-0.33231-1.49835-0.9114c-0.4267-0.82586-0.10225-1.84148,0.72361-2.26916   l6.84877-3.53843c0.83176-0.42473,1.84246-0.10225,2.26916,0.72361c0.4267,0.82586,0.10225,1.84148-0.72361,2.26916   l-6.84877,3.53844C12.54033,47.65514,12.27684,47.71609,12.01728,47.71609z"/><path d="M3.22773,44.63385c-0.60957,0-1.19554-0.33035-1.49639-0.90747l-1.54161-2.96721   c-0.42866-0.82586-0.10618-1.84246,0.71772-2.27113c0.82586-0.42768,1.84246-0.10717,2.27113,0.71772l1.54161,2.96721   c0.42866,0.82586,0.10618,1.84246-0.71772,2.27113C3.75471,44.5729,3.48925,44.63385,3.22773,44.63385z"/><path d="M21.43607,35.21703c-0.60957,0-1.19554-0.33035-1.49639-0.90845l-1.54161-2.96819   c-0.42866-0.82488-0.10618-1.84148,0.71772-2.27014c0.82586-0.42768,1.8405-0.10716,2.27113,0.7187l1.54161,2.96819   c0.42866,0.82488,0.10618,1.84148-0.71772,2.27015C21.96305,35.15608,21.69759,35.21703,21.43607,35.21703z"/></g></svg>