<svg xmlns="http://www.w3.org/2000/svg" data-name="Layer 1" viewBox="0 0 128 160" x="0px" y="0px"><title>miscellaneous 62 final</title><path d="M116.99982,52.97845a5.99725,5.99725,0,1,0-6-5.99725A6.00519,6.00519,0,0,0,116.99982,52.97845Zm0-7.99634a1.99908,1.99908,0,1,1-2,1.99908A2.00182,2.00182,0,0,1,116.99982,44.98212Z"/><path d="M94.99982,52.97845a7.99634,7.99634,0,1,0-8-7.99634A8.00733,8.00733,0,0,0,94.99982,52.97845Zm0-11.99451a3.99817,3.99817,0,1,1-4,3.99817A4.00333,4.00333,0,0,1,94.99982,40.98395Z"/><path d="M.81818,111.13043A57.28623,57.28623,0,0,0,35.14142,122,64.55838,64.55838,0,0,0,55.452,118.8515a1.99839,1.99839,0,0,0,1.09277-.95654c8.7002-16.69208,8.13184-27.53131,6.37793-41.02173-1.07935-8.29822-4.75183-11.29614-9.92285-12.3501V62.97382a5.99527,5.99527,0,0,0-3-5.18585V11.99725a6,6,0,0,0-12,0V57.788a5.99527,5.99527,0,0,0-3,5.18585v1.26959c-9.52637,1.06177-11.27765,5.82111-11.62207,10.49066C21.5379,99.5874,2.11212,107.33289,1.28595,107.65063a1.9987,1.9987,0,0,0-.46777,3.4798ZM41.99982,11.99725a2,2,0,0,1,4,0V56.97662h-4Zm-3,50.97656a2.00186,2.00186,0,0,1,2-1.99908h6a2.00186,2.00186,0,0,1,2,1.99908V64.051c-1.95465-.10321-4.04681-.08008-6.23828-.05414-1.11523.0127-2.28027.02588-3.49414.02588-.09155,0-.17706.003-.26758.00348ZM27.366,75.02887c.21875-2.95764.51855-7.008,11.90137-7.008,1.22949,0,2.40918-.01318,3.54-.02637,10.53906-.121,14.90527-.16986,16.14844,9.3941,1.68457,12.96039,2.20508,22.663-5.58594,37.93671a64.58458,64.58458,0,0,1-19.11273,2.569,39.79777,39.79777,0,0,0,12.58832-16.16827,1.99975,1.99975,0,0,0-3.69141-1.53931,36.03242,36.03242,0,0,1-15.05664,16.97754,1.98308,1.98308,0,0,0-.40393.27856,55.67067,55.67067,0,0,1-7.84467-1.53687A40.70871,40.70871,0,0,0,31.73419,102.9516a1.99984,1.99984,0,0,0-3.46875-1.99127,36.19038,36.19038,0,0,1-13.17285,13.20782,1.95043,1.95043,0,0,0-.18433.11835,50.16452,50.16452,0,0,1-8.93188-4.47479C12.3299,106.286,25.78693,96.36816,27.366,75.02887Z"/><path d="M35.99982,75.9679h12a1.99908,1.99908,0,1,0,0-3.99817h-12a1.99908,1.99908,0,1,0,0,3.99817Z"/><path d="M66.90289,68.08215,69.4726,72.943l2.81628,35.1283a14.06829,14.06829,0,0,0,13.9541,12.876h19.51367a14.06829,14.06829,0,0,0,13.9541-12.876l2.66888-33.29c.27527-.43066.54358-.86462.78552-1.309l3.03894-6.25995a5.94034,5.94034,0,0,0,1.79572-4.23859,6.00514,6.00514,0,0,0-6-5.99719h-10a6,6,0,0,0-12,0H89.73651a7.98895,7.98895,0,0,0-15.47339,0H69.99982a5.97865,5.97865,0,0,0-3.09692,11.10553Zm6.26392.88892H80.015c.00507,2.92316.01129,6.222.01855,9.514A20.95545,20.95545,0,0,1,73.405,71.94293Zm45.29541,4.6239a23.7979,23.7979,0,0,1-6.415,5.96338c-.00836-3.63684-.01691-7.34186-.02435-10.58728h6.81Zm3.5376-12.62024a1.99908,1.99908,0,1,1,0,3.99817h-9.98621c-.00372-1.60687-.00684-2.97925-.00922-3.99817Zm-11.91211,38.311a1.99962,1.99962,0,0,0,2-1.999c0-.07629-.01361-6.01166-.03009-13.18665a30.885,30.885,0,0,0,5.89618-4.1618l-2.22937,27.81384a10.05034,10.05034,0,0,1-9.96777,9.197H86.243a10.05034,10.05034,0,0,1-9.96777-9.197L73.94757,78.71173a31.36639,31.36639,0,0,0,6.097,4.39636c.02008,7.76624.04626,14.42761.077,14.51422a1.99607,1.99607,0,0,0,1.96613,1.66345c.41309,0,.52148.082,1.03027.51788a5.19674,5.19674,0,0,0,7.2666,0c.50879-.43585.61719-.51788,1.03027-.51788s.52148.082,1.03027.51788a5.19975,5.19975,0,0,0,7.26855.00049c.50879-.43634.61816-.51837,1.03223-.51837.415,0,.52441.082,1.03418.51886a5.20638,5.20638,0,0,0,7.27246,0C109.56329,99.36829,109.67169,99.28577,110.08771,99.28577ZM83.99982,95.64746V85.02423A36.3406,36.3406,0,0,0,97.51831,87.9624a29.821,29.821,0,0,0,10.48151-2.00348v9.76514a6.422,6.422,0,0,0-1.54883,1.04382c-.50977.43683-.61914.51886-1.03418.51886-.416,0-.52441-.08252-1.03516-.51886a5.20457,5.20457,0,0,0-7.27148.00049c-.50879.43634-.61816.51837-1.03223.51837-.41211,0-.52051-.082-1.0293-.51788a5.19794,5.19794,0,0,0-7.26758,0c-.50879.43585-.61719.51788-1.0293.51788-.41309,0-.52148-.082-1.03027-.51788A6.11968,6.11968,0,0,0,83.99982,95.64746Zm22-40.66992a2.00182,2.00182,0,0,1,2,1.99908h-4A2.00182,2.00182,0,0,1,105.99982,54.97754Zm2,5.99719V81.70325a26.66069,26.66069,0,0,1-10.4834,2.261A33.22419,33.22419,0,0,1,83.99982,80.684V60.97473Zm-26-5.99719a3.98671,3.98671,0,0,1,3.44366,1.99908H78.55615A3.98671,3.98671,0,0,1,81.99982,54.97754Zm-12,5.99719H80.0025c.0014,1.01874.00342,2.3905.00592,3.99817H69.99982a1.99908,1.99908,0,1,1,0-3.99817Z"/></svg>