<svg xmlns="http://www.w3.org/2000/svg" xmlns:xlink="http://www.w3.org/1999/xlink" version="1.1" x="0px" y="0px" viewBox="0 0 100 125" style="enable-background:new 0 0 100 100;" xml:space="preserve"><g><path d="M49.84368,60.44618c-14.4585,0-20.25134-18.6645-20.505-30.47237c-0.01966-0.93008,0.71771-1.6999,1.64779-1.71956   c0.92615-0.01573,1.69892,0.71673,1.71858,1.64681c0.19073,8.88688,4.63663,27.17679,17.14452,27.17679   c0.03539,0,0.07079,0,0.10815,0c12.65733-0.10619,17.14648-18.35579,17.33722-27.17679   c0.01966-0.92909,0.75311-1.64583,1.71858-1.64681c0.93008,0.01966,1.66746,0.78949,1.64779,1.71956   c-0.25365,11.71545-6.08975,30.34849-20.67606,30.4704C49.93806,60.44421,49.89087,60.44618,49.84368,60.44618z"/><path d="M12.07225,99.99911c-0.93008,0-1.68319-0.75311-1.68319-1.68319c0-11.15308,2.89445-21.3053,7.94205-27.85517   c2.82366-3.70655,7.0277-4.28269,10.73622-4.79198c3.07339-0.42079,5.97571-0.81799,8.03446-2.8099   c1.57504-1.49048,1.402-4.5855,1.19947-8.17014c-0.05309-0.92811,0.65873-1.72251,1.58684-1.7756   c0.90255-0.05506,1.72252,0.65873,1.7756,1.58684c0.23793,4.23746,0.46406,8.24093-2.23573,10.79324   c-2.83743,2.74304-6.59117,3.25822-9.90249,3.71245c-3.50598,0.48175-6.53611,0.89665-8.52212,3.50401   c-4.60713,5.97964-7.24793,15.38268-7.24793,25.80625C13.75544,99.246,13.00233,99.99911,12.07225,99.99911z"/><path d="M87.92775,99.99911c-0.93008,0-1.68319-0.75311-1.68319-1.68319c0-10.42357-2.64079-19.82661-7.24203-25.79839   c-1.99191-2.61523-5.02203-3.03013-8.52802-3.51188c-3.31132-0.45422-7.06506-0.96941-9.91429-3.72425   c-2.68799-2.54248-2.46186-6.59904-2.22393-10.89352c0.05112-0.92811,0.84749-1.64582,1.77364-1.5888   c0.93008,0.05112,1.63993,0.84553,1.58881,1.77364c-0.20253,3.6456-0.37754,6.7937,1.18767,8.27436   c2.07252,2.0037,4.97484,2.4009,8.04626,2.82169c3.70852,0.50928,7.91255,1.08543,10.74212,4.79984   c5.04169,6.54201,7.93615,16.69422,7.93615,27.84731C89.61094,99.246,88.85783,99.99911,87.92775,99.99911z"/><path d="M87.92775,99.99911h-75.8555c-0.93008,0-1.68319-0.75311-1.68319-1.68319s0.75311-1.68319,1.68319-1.68319h75.8555   c0.93008,0,1.68319,0.75311,1.68319,1.68319S88.85783,99.99911,87.92775,99.99911z"/><path d="M49.97149,33.04916c-12.0517,0-32.44658-1.77364-32.44658-8.41987c0-3.48141,5.4271-5.96293,16.12988-7.37672   c0.93795-0.11798,1.76774,0.52796,1.88966,1.44919c0.12191,0.92123-0.52698,1.76774-1.4492,1.88965   c-10.31542,1.36267-13.04273,3.56694-13.2079,4.08311c0.55058,1.69204,11.0233,5.0063,29.08414,5.0063   c18.07656,0,28.54339-3.3123,29.08414-5.08889c-0.16124-0.43849-2.87283-2.64374-13.20594-4.00052   c-0.92222-0.12093-1.57307-0.96646-1.45116-1.88867c0.12192-0.92123,0.98318-1.56816,1.88769-1.45018   c10.70476,1.40495,16.13186,3.88647,16.13186,7.37672C82.41807,31.27553,62.02319,33.04916,49.97149,33.04916z"/><path d="M34.04807,25.80025c-0.93008,0-1.68319-0.75409-1.68319-1.68417c0-19.93082,9.57411-24.11519,17.60661-24.11519   c0.93008,0,1.68319,0.75409,1.68319,1.68417s-0.75311,1.68417-1.68319,1.68417c-9.58198,0-14.24023,6.78584-14.24023,20.74685   C35.73125,25.04616,34.97815,25.80025,34.04807,25.80025z"/><path d="M73.82909,99.99911c-0.93008,0-1.68319-0.75311-1.68319-1.68319v-3.76751c0-0.93008,0.75311-1.68319,1.68319-1.68319   c0.93008,0,1.68318,0.75311,1.68318,1.68319v3.76751C75.51228,99.246,74.75917,99.99911,73.82909,99.99911z"/><path d="M26.17091,99.99911c-0.93008,0-1.68319-0.75311-1.68319-1.68319v-3.76751c0-0.93008,0.75311-1.68319,1.68319-1.68319   s1.68319,0.75311,1.68319,1.68319v3.76751C27.8541,99.246,27.10099,99.99911,26.17091,99.99911z"/><path d="M65.95193,25.80025c-0.93008,0-1.68319-0.75409-1.68319-1.68417c0-13.96101-4.67792-20.74685-14.29726-20.74685   c-0.93008,0-1.68319-0.75409-1.68319-1.68417s0.75311-1.68417,1.68319-1.68417c8.05806,0,17.66364,4.18437,17.66364,24.11519   C67.63512,25.04616,66.88201,25.80025,65.95193,25.80025z"/><path d="M49.97935,24.70304c-5.39957,0-10.78931-0.4208-16.13579-1.26337c-0.91828-0.14551-1.54554-1.00677-1.402-1.92603   c0.14551-0.91828,1.00087-1.54554,1.92505-1.40102c10.34688,1.6301,20.86483,1.6301,31.26677,0   c0.91631-0.14453,1.78151,0.48372,1.92505,1.40298c0.14354,0.91828-0.48372,1.77954-1.402,1.92406   C60.78242,24.28224,55.37499,24.70304,49.97935,24.70304z"/><path d="M49.97149,99.99911c-0.93008,0-1.68319-0.75311-1.68319-1.68319V74.22826c0-0.93008,0.75311-1.68318,1.68319-1.68318   c0.93008,0,1.68319,0.75311,1.68319,1.68318v24.08767C51.65467,99.246,50.90157,99.99911,49.97149,99.99911z"/><path d="M39.98051,77.68115c-0.79637,0-1.50229-0.56631-1.65369-1.37447l-0.37557-2.01746l-4.79197-0.08849   c-0.91631-0.01573-1.65172-0.76491-1.65172-1.68319v-5.82233c0-0.93008,0.75311-1.68319,1.68319-1.68319   c0.93008,0,1.68319,0.75311,1.68319,1.68319v4.16864l4.51275,0.08455c0.79833,0.01376,1.47672,0.5899,1.6242,1.37447   l0.32051,1.72645l4.53635-0.80424l-9.40894-7.08865c-0.74327-0.56041-0.89075-1.61633-0.33231-2.35764   c0.55844-0.74524,1.61633-0.89075,2.35764-0.33231l12.50002,9.41681c0.53484,0.4031,0.78064,1.08542,0.62529,1.73627   c-0.15731,0.65282-0.68428,1.15031-1.34497,1.26633l-9.98901,1.7697C40.17715,77.67329,40.07883,77.68115,39.98051,77.68115z"/><path d="M60.01949,77.68115c-0.09635,0-0.19467-0.00787-0.29495-0.02557l-10.04603-1.7697   c-0.66069-0.11602-1.18964-0.6135-1.34498-1.26633s0.09045-1.33514,0.62726-1.73824l12.55705-9.41681   c0.74721-0.56237,1.80313-0.4031,2.35764,0.33625c0.55844,0.74524,0.40703,1.7992-0.33624,2.35764l-9.44827,7.08669l4.57764,0.8062   l0.32051-1.72841c0.14748-0.78457,0.82586-1.36071,1.6242-1.37447l4.51275-0.08455v-4.16864   c0-0.93008,0.75311-1.68319,1.68319-1.68319s1.68319,0.75311,1.68319,1.68319v5.82233c0,0.91828-0.73344,1.66746-1.65173,1.68319   l-4.79197,0.08849l-0.37557,2.01746C61.52177,77.11485,60.81585,77.68115,60.01949,77.68115z"/><path d="M34.27616,92.69219c-0.29888,0-0.59777-0.07865-0.86322-0.23793l-6.50662-3.88155   c-0.50928-0.30282-0.81996-0.85143-0.81996-1.44526v-4.05066c0-0.93008,0.75311-1.68319,1.68319-1.68319h13.07026   c0.93008,0,1.68319,0.75311,1.68319,1.68319v4.05066c0,0.5958-0.31461,1.14638-0.82586,1.4492l-6.56364,3.88155   C34.86803,92.6155,34.57308,92.69219,34.27616,92.69219z M29.45273,86.17181l4.82736,2.87872l4.87652-2.88265v-1.4079h-9.70389   V86.17181z"/><path d="M65.66682,92.69219c-0.29889,0-0.59777-0.07865-0.86323-0.23793l-6.50662-3.88155   c-0.50928-0.30282-0.81996-0.85143-0.81996-1.44526v-4.05066c0-0.93008,0.75311-1.68319,1.68319-1.68319h13.07027   c0.93008,0,1.68318,0.75311,1.68318,1.68319v4.05066c0,0.5958-0.31461,1.14638-0.82586,1.4492l-6.56364,3.88155   C66.25868,92.6155,65.96373,92.69219,65.66682,92.69219z M60.84338,86.17181l4.82736,2.87872l4.87653-2.88265v-1.4079h-9.70389   V86.17181z"/><path d="M9.73231,79.33681H1.68408c-0.60957,0-1.17194-0.32838-1.47082-0.86125c-0.29692-0.53288-0.28315-1.18571,0.03736-1.70482   l8.0089-13.01521H3.85295c-0.6194,0-1.18964-0.34018-1.48262-0.88485c-0.29298-0.54664-0.26349-1.2093,0.07865-1.72644   l8.8328-13.37013H8.30474c-0.62136,0-1.19357-0.34312-1.48655-0.89272C6.5252,46.33278,6.5606,45.66717,6.90667,45.151   l9.2477-13.75553c0.51911-0.77081,1.56324-0.97825,2.33798-0.45816c0.77081,0.51813,0.97531,1.5652,0.45816,2.33601   l-7.48586,11.13243h2.94754c0.6194,0,1.18964,0.34116,1.48262,0.88682c0.29298,0.54566,0.26349,1.20831-0.07865,1.72546   l-8.8328,13.37111h4.29055c0.60956,0,1.17194,0.33035,1.47082,0.86126c0.29692,0.53288,0.28315,1.1857-0.03736,1.70481   L4.69651,75.97044h5.0358c0.93008,0,1.68319,0.75311,1.68319,1.68319C11.41549,78.5837,10.66238,79.33681,9.73231,79.33681z"/><path d="M31.24996,63.75553h-7.419c-0.93008,0-1.68319-0.75311-1.68319-1.68319c0-0.93008,0.75311-1.68319,1.68319-1.68319h4.28859   l-8.8328-13.37111c-0.34214-0.51715-0.37164-1.1798-0.07865-1.72546c0.29299-0.54566,0.86322-0.88682,1.48262-0.88682h2.94754   l-7.48389-11.13243c-0.51715-0.77179-0.31265-1.81788,0.45816-2.33601c0.77474-0.5201,1.8169-0.31265,2.33798,0.45816   L28.19624,45.151c0.34608,0.51617,0.37951,1.18177,0.08849,1.73038c-0.29298,0.54959-0.86519,0.89272-1.48655,0.89272h-2.97704   l8.8328,13.37013c0.34214,0.51715,0.37164,1.1798,0.07866,1.72644C32.4396,63.41536,31.86936,63.75553,31.24996,63.75553z"/><path d="M98.31593,79.33681h-8.04823c-0.93008,0-1.68318-0.75311-1.68318-1.68318c0-0.93008,0.75311-1.68319,1.68318-1.68319   h5.0358l-8.01086-13.01521c-0.32052-0.51911-0.33428-1.17194-0.03736-1.70481c0.29888-0.53091,0.86125-0.86126,1.47082-0.86126   h4.28072l-8.87802-13.36718c-0.34412-0.51715-0.37557-1.18079-0.08259-1.72743c0.29298-0.54763,0.86322-0.88879,1.48459-0.88879   h3.00456l-7.48586-11.13243c-0.51714-0.77081-0.31264-1.81788,0.45816-2.33601c0.77473-0.5201,1.81689-0.31265,2.33797,0.45816   l9.2477,13.75553c0.34608,0.51617,0.38147,1.18177,0.08849,1.73038c-0.29298,0.54959-0.86519,0.89272-1.48655,0.89272h-3.02423   l8.87802,13.3662c0.34411,0.51715,0.37557,1.18177,0.08259,1.72841s-0.86322,0.88682-1.48459,0.88682h-4.40656l8.0089,13.01521   c0.32051,0.51911,0.33427,1.17194,0.03735,1.70482C99.48786,79.00843,98.92549,79.33681,98.31593,79.33681z"/><path d="M76.11201,63.75553h-7.41901c-0.62136,0-1.1916-0.34018-1.48458-0.88682s-0.26153-1.21127,0.08258-1.72841l8.87803-13.3662   h-3.02423c-0.62333,0-1.19553-0.34411-1.48656-0.89468c-0.29298-0.55058-0.25758-1.21716,0.09242-1.73235l9.30276-13.75553   c0.51911-0.77081,1.56717-0.97334,2.33797-0.45226c0.76884,0.52108,0.97137,1.56816,0.45029,2.33798l-7.52518,11.1285h2.99277   c0.62137,0,1.1916,0.34116,1.48459,0.88879c0.29298,0.54664,0.26152,1.21028-0.08259,1.72743l-8.87802,13.36718h4.27876   c0.93008,0,1.68318,0.75311,1.68318,1.68319C77.7952,63.00242,77.04209,63.75553,76.11201,63.75553z"/></g></svg>