<svg height="469pt" viewBox="0 0 469 469.33333" width="469pt" xmlns="http://www.w3.org/2000/svg"><path fill="#41474e" d="m233.765625 0c-122.410156 0-222.804687 93.738281-233.597656 213.332031h190.933593v-64c0-8.617187 5.203126-16.402343 13.160157-19.710937 7.980469-3.304688 17.152343-1.472656 23.253906 4.628906l85.332031 85.335938c8.34375 8.339843 8.34375 21.820312 0 30.164062l-85.332031 85.332031c-6.101563 6.101563-15.273437 7.9375-23.253906 4.628907-7.957031-3.304688-13.160157-11.09375-13.160157-19.710938v-64h-190.933593c10.792969 119.59375 111.1875 213.332031 233.597656 213.332031 129.601563 0 234.667969-105.066406 234.667969-234.664062 0-129.601563-105.066406-234.667969-234.667969-234.667969zm0 0"/></svg>