<?xml version="1.0"?>
<svg xmlns="http://www.w3.org/2000/svg" id="Capa_1" enable-background="new 0 0 479.058 479.058" height="512px" viewBox="0 0 479.058 479.058" width="512px"><g transform="matrix(-1 -2.46519e-32 -2.46519e-32 1 479.058 2.84217e-14)"><path d="m239.529 449.117h-224.558c-5.804 0-11.096-3.363-13.552-8.626-2.471-5.248-1.667-11.462 2.047-15.935l47.075-56.49c-32.69-36.74-50.541-81.9-50.541-128.537 0-115.569 107.455-209.588 239.529-209.588s239.529 94.019 239.529 209.588-107.455 209.588-239.529 209.588zm-192.6-29.941h192.6c115.568 0 209.588-80.584 209.588-179.647s-94.02-179.647-209.588-179.647-209.588 80.584-209.588 179.647c0 42.923 18.172 84.575 51.154 117.279 5.512 5.468 5.936 14.24.965 20.204.001 0-35.13 42.163-35.131 42.164z" data-original="#000000" class="active-path" data-old_color="#000000" fill="#878D90"/><path id="path-1" d="m250.115 273.855c5.846 5.846 5.846 15.325 0 21.172-5.846 5.846-15.325 5.846-21.172 0-5.846-5.846-5.846-15.325 0-21.172 5.847-5.847 15.325-5.847 21.172 0" transform="translate(7.451 8.951)" data-original="#000000" class="active-path" data-old_color="#000000" fill="#878D90"/><path id="path-1_1_" d="m175.262 273.855c5.846 5.846 5.846 15.325 0 21.172-5.846 5.846-15.325 5.846-21.172 0-5.846-5.846-5.846-15.325 0-21.172 5.847-5.847 15.326-5.847 21.172 0" transform="translate(4.951 8.951)" data-original="#000000" class="active-path" data-old_color="#000000" fill="#878D90"/><path id="path-1_2_" d="m324.967 273.855c5.846 5.846 5.846 15.325 0 21.172-5.846 5.846-15.325 5.846-21.172 0-5.846-5.846-5.846-15.325 0-21.172 5.847-5.847 15.326-5.847 21.172 0" transform="translate(9.951 8.951)" data-original="#000000" class="active-path" data-old_color="#000000" fill="#878D90"/></g> </svg>
