<?xml version="1.0" standalone="no"?><svg xmlns="http://www.w3.org/2000/svg" viewBox="0 0 1440 320"><path fill="#fab13d" fill-opacity="1" d="M0,288L40,245.3C80,203,160,117,240,90.7C320,64,400,96,480,133.3C560,171,640,213,720,213.3C800,213,880,171,960,160C1040,149,1120,171,1200,192C1280,213,1360,235,1400,245.3L1440,256L1440,320L1400,320C1360,320,1280,320,1200,320C1120,320,1040,320,960,320C880,320,800,320,720,320C640,320,560,320,480,320C400,320,320,320,240,320C160,320,80,320,40,320L0,320Z"></path></svg>