<?xml version="1.0" standalone="no"?><svg xmlns="http://www.w3.org/2000/svg" viewBox="0 0 1440 320"><path fill="#63b4cf" fill-opacity="1" d="M0,32L30,42.7C60,53,120,75,180,101.3C240,128,300,160,360,154.7C420,149,480,107,540,112C600,117,660,171,720,192C780,213,840,203,900,181.3C960,160,1020,128,1080,128C1140,128,1200,160,1260,192C1320,224,1380,256,1410,272L1440,288L1440,0L1410,0C1380,0,1320,0,1260,0C1200,0,1140,0,1080,0C1020,0,960,0,900,0C840,0,780,0,720,0C660,0,600,0,540,0C480,0,420,0,360,0C300,0,240,0,180,0C120,0,60,0,30,0L0,0Z"></path></svg>