<?xml version="1.0" standalone="no"?><svg xmlns="http://www.w3.org/2000/svg" viewBox="0 0 1440 320"><path fill="#41474e" fill-opacity="1" d="M0,192L21.8,165.3C43.6,139,87,85,131,85.3C174.5,85,218,139,262,176C305.5,213,349,235,393,218.7C436.4,203,480,149,524,138.7C567.3,128,611,160,655,186.7C698.2,213,742,235,785,245.3C829.1,256,873,256,916,213.3C960,171,1004,85,1047,48C1090.9,11,1135,21,1178,37.3C1221.8,53,1265,75,1309,112C1352.7,149,1396,203,1418,229.3L1440,256L1440,0L1418.2,0C1396.4,0,1353,0,1309,0C1265.5,0,1222,0,1178,0C1134.5,0,1091,0,1047,0C1003.6,0,960,0,916,0C872.7,0,829,0,785,0C741.8,0,698,0,655,0C610.9,0,567,0,524,0C480,0,436,0,393,0C349.1,0,305,0,262,0C218.2,0,175,0,131,0C87.3,0,44,0,22,0L0,0Z"></path></svg>