<?xml version="1.0" encoding="utf-8"?>
<!-- Generator: Adobe Illustrator 23.0.3, SVG Export Plug-In . SVG Version: 6.00 Build 0)  -->
<svg version="1.1" id="Layer_1" xmlns="http://www.w3.org/2000/svg" xmlns:xlink="http://www.w3.org/1999/xlink" x="0px" y="0px"
	 viewBox="0 0 592.1 592.1" style="enable-background:new 0 0 592.1 592.1;" xml:space="preserve">
<style type="text/css">
	.st0{fill:#EAEAEA;}
	.st1{clip-path:url(#SVGID_2_);}
	.st2{fill:#FFD6A6;}
	.st3{fill:#42434D;}
	.st4{fill:#FFDFBA;}
	.st5{fill:#320090;}
	.st6{fill:#421CA0;}
	.st7{fill:#210070;}
	.st8{fill:#F7C388;}
	.st9{fill:#4D4E59;}
	.st10{fill:#FFEBD2;}
</style>
<circle class="st0" cx="296" cy="296" r="296"/>
<g>
	<defs>
		<circle id="SVGID_1_" cx="296" cy="296" r="296"/>
	</defs>
	<clipPath id="SVGID_2_">
		<use xlink:href="#SVGID_1_"  style="overflow:visible;"/>
	</clipPath>
	<g class="st1">
		<path class="st2" d="M460.3,541.7v41.9c0,4.7-3.8,8.5-8.5,8.5H140.3c-4.7,0-8.5-3.8-8.5-8.5v-41.9c0-43.9,35.6-79.5,79.6-79.5
			c15.5,0,29.2-8,37.1-20.1c7.9-12.2,7.1-22.7,7.1-31.3l0.2-0.4c-38.3-15.8-65.2-53.6-65.2-97.6v-3.3c-15.2,0-26.7-12-26.7-26.2
			v-44.3c-0.3-15.4,0.4-69.9,39.7-107.8c45.7-44.1,118.2-40.5,170.6-16.9c1.7,0.8,1.7,3.2-0.1,3.9l-13.7,5.6c-2,0.8-1.6,3.9,0.6,4.1
			l6.6,0.7c35.8,3.8,65.5,25.2,80.3,50.4c0.1,0.2,0.1,0.6-0.1,0.8c-11.8,12.1-18.4,28.3-18.4,45.2v56.7c0,15.3-12.4,27.7-27.7,27.7
			v3.3c0,44-26.9,81.7-65.2,97.6l0.2,0.4c0,8.3-0.9,19,7.1,31.3c7.9,12.1,21.5,20.1,37.1,20.1C424.7,462.1,460.3,497.7,460.3,541.7
			L460.3,541.7z"/>
		<path class="st3" d="M447.9,179.1c0.1,0.2,0.1,0.6-0.1,0.8c-11.8,12.1-18.4,28.3-18.4,45.2v56.7c0,15.3-12.4,27.7-27.7,27.7
			c0-32.3,0-49.1,0-58.2c0-5.7-5.5-9.8-11-8.2c-17.2,5.3-37.3,8-58.3,3.4c-37.1-8.1-47.6-22.6-77.9-29.9
			c-33.8-8.1-64.5,17.8-64.3,50.9c0.1,10.9,0.2,24.5,0.3,41.9c-15.2,0-26.7-12-26.7-26.2v-44.3c-0.3-15.4,0.4-69.9,39.7-107.8
			c45.7-44.1,118.2-40.5,170.6-16.9c1.7,0.8,1.7,3.2-0.1,3.9l-13.7,5.6c-2,0.8-1.6,3.9,0.6,4.1l6.6,0.7
			C403.3,132.5,433.1,153.8,447.9,179.1z"/>
		<path class="st4" d="M390.6,243.1c5.5-1.7,11,2.4,11,8.1c0,9.4,0,27.1,0,61.6c0,44-26.9,81.7-65.2,97.6
			c-69.2,28.7-146-22.3-146-97.6c0-19.5-0.2-33.3-0.3-45.2c-0.2-33.1,30.5-59,64.3-50.9c30.3,7.3,40.8,21.8,77.9,29.9
			C353.4,251.1,373.4,248.4,390.6,243.1z"/>
		<path class="st5" d="M460.3,541.7v41.9c0,4.7-3.8,8.5-8.5,8.5H140.3c-4.7,0-8.5-3.8-8.5-8.5v-41.9c0-43.9,35.6-79.5,79.5-79.5
			c15.5,0,29.2-8,37.1-20.1c27.5,23.5,67.8,23.5,95.2,0c7.9,12.1,21.5,20.1,37.1,20.1C424.7,462.1,460.3,497.7,460.3,541.7
			L460.3,541.7z"/>
		<path class="st6" d="M254.3,487.9c-3.9,1.2-8.2,1.9-12.7,2c-44,0.4-80,35.2-80,79.3v8c0,8.2-6.7,14.9-14.9,14.9h-6.4
			c-4.7,0-8.5-3.8-8.5-8.5v-41.9c0-43.9,35.6-79.5,79.5-79.5c15.5,0,29.2-8,37.1-20.1c3.2,2.7,6.6,5.1,10.1,7.3
			C274.3,458.7,271.8,482.4,254.3,487.9L254.3,487.9z"/>
		<path class="st7" d="M337.8,487.9c3.9,1.2,8.2,1.9,12.7,2c44,0.4,80,35.2,80,79.3v8c0,8.2,6.7,14.9,14.9,14.9h6.4
			c4.7,0,8.5-3.8,8.5-8.5v-41.9c0-43.9-35.6-79.5-79.5-79.5c-15.5,0-29.2-8-37.1-20.1c-3.2,2.7-6.6,5.1-10.1,7.3
			C317.8,458.7,320.3,482.4,337.8,487.9L337.8,487.9z"/>
		<path class="st8" d="M337.8,428.3c-26.3,11-55.2,11.9-83.5,0c1.4-6,1.2-9.9,1.2-17.5l0.2-0.4c25.7,10.7,55,10.7,80.7,0l0.2,0.4
			C336.6,418.4,336.3,422.3,337.8,428.3z"/>
		<path class="st9" d="M374,118.2c-10.1,4.1-12.3,5.6-16.9,4.8c-84.6-13.9-151.3,30.3-160.4,116.8c-0.2,1.5-0.5,3-1.2,4.4
			c-6.5,13.2-5.3,23-5.2,39.2c0.1,17.1-25.6,18.2-26.5,1.1c-0.1-1.1,0,1.7,0-45.6c-0.3-15.4,0.4-69.9,39.7-107.8
			c45.7-44.1,118.2-40.5,170.6-16.9C375.8,115.1,375.7,117.5,374,118.2z"/>
		<path class="st10" d="M272.1,381c17.4,10.9,3.7,37.5-15.3,29.9c-39-15.7-66.4-53.7-66.4-98.1c0-19.5-0.2-33.2-0.3-45.2
			c-0.1-10.7,3.1-20.7,8.5-29c6.8-10.4,23.4-5.9,23.5,7.6c0.1,12,0.3,25.7,0.3,45.2C222.4,330.4,242.9,362.7,272.1,381L272.1,381z"
			/>
		<path d="M468.8,541.7v50.4c0,4.7-3.8,8.5-8.5,8.5c-4.7,0-8.5-3.8-8.5-8.5v-50.4c0-39.2-31.8-71-71-71c-18.6,0-35.4-9.5-45.1-25.3
			c-2.5-4-1.2-9.3,2.8-11.7c4-2.5,9.3-1.2,11.7,2.8c6.5,10.7,17.9,17.1,30.5,17.1C429.4,453.6,468.8,493,468.8,541.7L468.8,541.7z
			 M309.8,449.6c-17.9,3.9-36-0.1-50.4-9.9c2.5-5.5,4-11.3,4.5-17.4c73.1,21.5,146.3-33.7,146.3-109.5c0-72.4,0.1-71.2-0.2-74.2
			c-1.1-11.8-18.1-10.2-17,1.7c0.2,1.9,0.1,3.6,0.1,72.5c0,53.5-43.5,97.1-97.1,97.1S199,366.3,199,312.8c0-19.2-0.2-34.1-0.3-45.3
			c-0.2-28,25.7-49.3,53.7-42.6c39.5,9.5,55.4,34.1,106.1,31.8c4.7-0.2,8.3-4.2,8.1-8.9c-0.2-4.7-4.2-8.3-8.9-8.1
			c-45.7,2.1-58.3-21-101.3-31.3c-38.9-9.3-75,20.3-74.8,59.3c0.1,9.1,0.2,19,0.2,31.2c-5.7-3-9.6-8.8-9.6-15.6c0-0.2,0-44.3,0-44.5
			c-0.4-19.3,2.3-67.9,37.1-101.4c38.8-37.4,99.5-37.4,146.8-21l-6.8,2.8c-8.1,3.4-6.4,15.4,2.3,16.4l15,1.6
			c28.9,3.1,54.4,18.1,70.7,41.5c-10.7,13-16.6,29.3-16.6,46.4v58.2c0,4.7,3.8,8.5,8.5,8.5s8.5-3.8,8.5-8.5v-58.2
			c0-14.8,5.7-28.8,16.1-39.4c2.9-2.9,3.2-7.7,1.2-10.9c-17-27.3-42.3-44.8-71.2-51.9c4.7-4,3.8-11.4-1.7-14.1
			c-24.8-12.5-60.2-21.3-93.9-20C203.3,92,153.5,155.7,155.2,239v44.2c0,16.3,11.4,30,26.8,33.7c1.6,43.6,27.7,81,65,98.8v2.2
			c0,19.7-15.9,35.6-35.7,35.6c-48.8,0-88.1,39.5-88.1,88.1v50.4c0,4.7,3.8,8.5,8.5,8.5c4.7,0,8.5-3.8,8.5-8.5v-50.4
			c0-39.2,31.8-71,71-71c14.5,0,28.4-5.8,38.6-16.8c18.2,12.4,41,17.3,63.5,12.4c4.6-1,7.5-5.5,6.5-10.2
			C318.9,451.5,314.4,448.6,309.8,449.6L309.8,449.6z"/>
	</g>
</g>
</svg>
