<?xml version="1.0" encoding="utf-8"?>
<!-- Generator: Adobe Illustrator 23.0.3, SVG Export Plug-In . SVG Version: 6.00 Build 0)  -->
<svg version="1.1" id="Capa_1" xmlns="http://www.w3.org/2000/svg" xmlns:xlink="http://www.w3.org/1999/xlink" x="0px" y="0px"
	 viewBox="0 0 65.03 57.84" style="enable-background:new 0 0 65.03 57.84;" xml:space="preserve">
<style type="text/css">
	.st0{fill:#320090;}
</style>
<g>
	<g>
		<path class="st0" d="M18.15,3.8c-3.95,0-7.57,1.57-10.21,4.43c-2.68,2.9-4.15,6.91-4.15,11.3c0,4.62,1.72,8.76,5.57,13.41
			c3.72,4.49,9.26,9.22,15.68,14.68l0.01,0.01c2.24,1.91,4.79,4.08,7.43,6.39c2.66-2.32,5.21-4.49,7.45-6.4
			c6.41-5.47,11.95-10.19,15.68-14.68c3.85-4.65,5.57-8.79,5.57-13.41c0-4.38-1.47-8.4-4.15-11.3C54.39,5.37,50.77,3.8,46.82,3.8
			c-2.89,0-5.54,0.92-7.89,2.73c-2.09,1.61-3.54,3.66-4.39,5.09c-0.44,0.73-1.21,1.17-2.07,1.17s-1.63-0.44-2.06-1.17
			c-0.85-1.43-2.31-3.47-4.4-5.09C23.7,4.72,21.04,3.8,18.15,3.8 M32.5,57.84c-0.93,0-1.82-0.33-2.51-0.94
			c-2.63-2.3-5.16-4.45-7.39-6.36l-0.01-0.01c-6.55-5.58-12.21-10.4-16.14-15.15C2.05,30.07,0,25.04,0,19.54
			C0,14.2,1.83,9.27,5.16,5.66C8.53,2.01,13.14,0,18.17,0c3.75,0,7.19,1.19,10.22,3.53c1.53,1.18,2.91,2.63,4.13,4.31
			c1.22-1.69,2.6-3.13,4.13-4.31C39.68,1.19,43.11,0,46.86,0c5.02,0,9.64,2.01,13.01,5.66c3.33,3.61,5.16,8.54,5.16,13.88
			c0,5.5-2.05,10.53-6.45,15.84c-3.94,4.75-9.59,9.57-16.14,15.15c-2.24,1.91-4.78,4.07-7.41,6.37
			C34.32,57.5,33.42,57.84,32.5,57.84"/>
	</g>
</g>
</svg>
