<?xml version="1.0" encoding="utf-8"?>
<!-- Generator: Adobe Illustrator 23.0.3, SVG Export Plug-In . SVG Version: 6.00 Build 0)  -->
<svg version="1.1" id="Capa_1" xmlns="http://www.w3.org/2000/svg" xmlns:xlink="http://www.w3.org/1999/xlink" x="0px" y="0px"
	 viewBox="0 0 463.84 109.24" style="enable-background:new 0 0 463.84 109.24;" xml:space="preserve">
<style type="text/css">
	.st0{fill:#FFFFFF;}
	.st1{fill:#320090;}
</style>
<g>
	<g>
		<path class="st0" d="M49.32,91.27c24.59,0,44.53-19.94,44.53-44.53c0-24.59-19.94-44.53-44.53-44.53S4.79,22.15,4.79,46.74
			C4.79,71.33,24.72,91.27,49.32,91.27"/>
	</g>
	<g>
		<path class="st1" d="M412.15,107.3c3.19,1.29,6.53,1.94,9.99,1.94c2.72,0,5.34-0.41,7.85-1.22c2.51-0.82,4.81-1.99,6.88-3.52
			s3.86-3.36,5.35-5.51c1.49-2.14,2.65-4.54,3.47-7.19l18.15-60.05h-18.05l-8.26,37.21l-10.2-37.21h-19.88l19.47,53.63
			c-0.41,4.76-2.69,7.14-6.83,7.14c-2.18,0-4.83-0.58-7.95-1.73v16.51H412.15z M390.64,85.38V52.55h11.72V37.97h-11.72v-6.52
			c0-3.47,1.56-5.2,4.69-5.2c1.02,0,2.19,0.14,3.52,0.41c1.33,0.27,2.56,0.61,3.72,1.02L405.83,13c-5.44-2.04-10.4-3.06-14.89-3.06
			c-2.99,0-5.69,0.53-8.11,1.58c-2.41,1.06-4.47,2.55-6.17,4.49c-1.7,1.94-3.03,4.28-3.98,7.03s-1.43,5.8-1.43,9.12v5.81h-6.63
			v14.58h6.63v32.83H390.64z M355.67,10.95H336.3v16.31h19.37V10.95z M355.67,31.75H336.3v53.63h19.37V31.75z M325.28,67.13
			c-1.22,0.55-2.45,0.97-3.67,1.27c-1.22,0.31-2.31,0.46-3.26,0.46c-1.29,0-2.31-0.36-3.06-1.07s-1.12-1.95-1.12-3.72V46.33h10.5
			V31.75h-10.5V14.93H294.8v16.82h-6.63v14.58h6.63V70.9c0,2.92,0.42,5.37,1.27,7.34s2,3.57,3.47,4.79
			c1.46,1.22,3.18,2.11,5.15,2.65s4.04,0.82,6.22,0.82c2.99,0,6.03-0.39,9.12-1.17s6-1.75,8.72-2.91L325.28,67.13z M248.92,50.1
			c1.77-2.04,4.04-3.06,6.83-3.06c2.79,0,5.06,1.02,6.83,3.06c1.77,2.04,2.65,4.86,2.65,8.46s-0.88,6.42-2.65,8.46
			c-1.77,2.04-4.04,3.06-6.83,3.06c-2.79,0-5.06-1.02-6.83-3.06c-1.77-2.04-2.65-4.86-2.65-8.46S247.15,52.14,248.92,50.1
			 M268.39,84.1c3.67-1.53,6.74-3.57,9.23-6.12c2.48-2.55,4.35-5.51,5.61-8.87s1.89-6.88,1.89-10.55s-0.63-7.19-1.89-10.55
			c-1.26-3.36-3.13-6.32-5.61-8.87s-5.56-4.59-9.23-6.12c-3.67-1.53-7.89-2.29-12.64-2.29c-4.83,0-9.06,0.76-12.69,2.29
			c-3.64,1.53-6.7,3.57-9.18,6.12c-2.48,2.55-4.35,5.51-5.61,8.87c-1.26,3.37-1.89,6.88-1.89,10.55s0.63,7.19,1.89,10.55
			c1.26,3.36,3.13,6.32,5.61,8.87s5.54,4.59,9.18,6.12c3.63,1.53,7.87,2.29,12.69,2.29C260.51,86.4,264.72,85.63,268.39,84.1
			 M184.28,50.1c1.77-2.04,4.04-3.06,6.83-3.06c2.79,0,5.06,1.02,6.83,3.06c1.77,2.04,2.65,4.86,2.65,8.46s-0.88,6.42-2.65,8.46
			c-1.77,2.04-4.04,3.06-6.83,3.06c-2.79,0-5.06-1.02-6.83-3.06c-1.77-2.04-2.65-4.86-2.65-8.46S182.51,52.14,184.28,50.1
			 M203.75,84.1c3.67-1.53,6.74-3.57,9.23-6.12c2.48-2.55,4.35-5.51,5.61-8.87s1.89-6.88,1.89-10.55s-0.63-7.19-1.89-10.55
			c-1.26-3.36-3.13-6.32-5.61-8.87s-5.56-4.59-9.23-6.12c-3.67-1.53-7.89-2.29-12.64-2.29c-4.83,0-9.06,0.76-12.69,2.29
			c-3.64,1.53-6.7,3.57-9.18,6.12c-2.48,2.55-4.35,5.51-5.61,8.87c-1.26,3.37-1.89,6.88-1.89,10.55s0.63,7.19,1.89,10.55
			c1.26,3.36,3.13,6.32,5.61,8.87s5.54,4.59,9.18,6.12s7.87,2.29,12.69,2.29C195.87,86.4,200.08,85.63,203.75,84.1 M144.82,85.38
			V52.55h11.72V37.97h-11.72v-6.52c0-3.47,1.56-5.2,4.69-5.2c1.02,0,2.19,0.14,3.52,0.41c1.33,0.27,2.56,0.61,3.72,1.02L160.01,13
			c-5.44-2.04-10.4-3.06-14.88-3.06c-2.99,0-5.69,0.53-8.11,1.58c-2.41,1.06-4.47,2.55-6.17,4.49c-1.7,1.94-3.03,4.28-3.98,7.03
			s-1.43,5.8-1.43,9.12v5.81h-6.63v14.58h6.63v32.83H144.82z"/>
	</g>
	<g>
		<path class="st1" d="M68.84,71.87l-5.77-6.83l7.04-19.71l9.17-4.49l10.04,10.97c-0.6,6.21-2.6,12.01-5.64,17.13L68.84,71.87z
			 M58.39,88.09c-3.41,0.9-6.96,1.43-10.64,1.43c-4.45,0-8.74-0.72-12.77-2.01l-3.75-11.69l5.99-7.19h21.09l5.88,6.96L58.39,88.09z
			 M13.31,71.34C9.41,65.67,6.88,59,6.18,51.8l10.1-10.98l9.21,4.51l6.94,19.71l-5.87,7.03L13.31,71.34z M32.54,8.87l12.28,6.62
			v11.66L27.6,39.7l-9.41-4.59l-2.92-13.58C19.78,15.93,25.73,11.55,32.54,8.87 M50.78,15.51l12.28-6.6
			c6.8,2.69,12.73,7.1,17.24,12.71l-2.92,13.5l-9.36,4.59L50.79,27.16V15.51L50.78,15.51L50.78,15.51z M47.74,0
			C21.42,0,0,21.42,0,47.74c0,26.33,21.42,47.74,47.74,47.74s47.74-21.42,47.74-47.74C95.49,21.42,74.07,0,47.74,0"/>
	</g>
</g>
</svg>
