<?xml version="1.0" encoding="utf-8"?>
<!-- Generator: Adobe Illustrator 23.0.3, SVG Export Plug-In . SVG Version: 6.00 Build 0)  -->
<svg version="1.1" id="Capa_1" xmlns="http://www.w3.org/2000/svg" xmlns:xlink="http://www.w3.org/1999/xlink" x="0px" y="0px"
	 viewBox="0 0 59.67 59.67" style="enable-background:new 0 0 59.67 59.67;" xml:space="preserve">
<style type="text/css">
	.st0{fill:#320090;}
</style>
<g>
	<g>
		<path class="st0" d="M42.82,41.52c0.04,0.52-0.38,0.96-0.9,0.96H17.76c-0.52,0-0.94-0.44-0.9-0.96
			c0.49-6.74,6.12-12.06,12.98-12.06C36.7,29.46,42.33,34.77,42.82,41.52 M36.44,20.47c0,3.65-2.96,6.6-6.6,6.6
			c-3.65,0-6.6-2.96-6.6-6.6s2.96-6.6,6.6-6.6S36.44,16.82,36.44,20.47 M59.67,29.83C59.67,13.35,46.31,0,29.84,0
			C13.36,0,0.01,13.36,0.01,29.83c0,16.48,13.36,29.83,29.83,29.83C46.31,59.67,59.67,46.31,59.67,29.83"/>
	</g>
</g>
</svg>
