<?xml version="1.0" encoding="utf-8"?>
<!-- Generator: Adobe Illustrator 23.0.3, SVG Export Plug-In . SVG Version: 6.00 Build 0)  -->
<svg version="1.1" id="Capa_1" xmlns="http://www.w3.org/2000/svg" xmlns:xlink="http://www.w3.org/1999/xlink" x="0px" y="0px"
	 viewBox="0 0 2834.65 2834.65" style="enable-background:new 0 0 2834.65 2834.65;" xml:space="preserve">
<style type="text/css">
	.st0{fill:#FFFFFF;}
</style>
<g>
	<g>
		<path class="st0" d="M1416.83,1447.64c-16.45,0-29.83-13.38-29.83-29.83s13.38-29.83,29.83-29.83s29.83,13.38,29.83,29.83
			S1433.28,1447.64,1416.83,1447.64z M1416.83,1391.58c-14.46,0-26.23,11.77-26.23,26.23s11.77,26.23,26.23,26.23
			s26.23-11.77,26.23-26.23S1431.29,1391.58,1416.83,1391.58z"/>
	</g>
	<g>
		<path class="st0" d="M1430,1421.74v-13.63h-6.59c-0.14,0.27-0.44,0.6-0.9,0.97c-0.47,0.37-0.98,0.73-1.55,1.05
			c-0.57,0.33-1.13,0.61-1.7,0.85s-1.01,0.36-1.33,0.36v5.91c0.43,0,0.92-0.07,1.46-0.2c0.54-0.14,1.08-0.32,1.61-0.54
			c0.53-0.23,1.01-0.47,1.44-0.73c0.43-0.26,0.75-0.53,0.95-0.8v6.76h-4.83v5.78h15.74v-5.78H1430z M1411.41,1421.74v-13.63h-6.59
			c-0.14,0.27-0.44,0.6-0.9,0.97c-0.46,0.37-0.98,0.73-1.55,1.05c-0.57,0.33-1.13,0.61-1.7,0.85s-1.01,0.36-1.33,0.36v5.91
			c0.43,0,0.92-0.07,1.46-0.2c0.54-0.14,1.08-0.32,1.61-0.54c0.53-0.23,1.01-0.47,1.44-0.73c0.43-0.26,0.75-0.53,0.95-0.8v6.76
			h-4.83v5.78h15.74v-5.78H1411.41z"/>
	</g>
</g>
</svg>
