<?xml version="1.0" encoding="utf-8"?>
<!-- Generator: Adobe Illustrator 23.0.3, SVG Export Plug-In . SVG Version: 6.00 Build 0)  -->
<svg version="1.1" id="Capa_1" xmlns="http://www.w3.org/2000/svg" xmlns:xlink="http://www.w3.org/1999/xlink" x="0px" y="0px"
	 viewBox="0 0 59.7 59.7" style="enable-background:new 0 0 59.7 59.7;" xml:space="preserve">
<style type="text/css">
	.st0{fill:#FFFFFF;}
</style>
<g>
	<g>
		<path class="st0" d="M29.8,59.7C13.4,59.7,0,46.3,0,29.8S13.4,0,29.8,0s29.8,13.4,29.8,29.8S46.3,59.7,29.8,59.7z M29.8,3.6
			C15.4,3.6,3.6,15.4,3.6,29.8s11.8,26.2,26.2,26.2s26.2-11.8,26.2-26.2S44.3,3.6,29.8,3.6z"/>
	</g>
	<g>
		<path class="st0" d="M43,33.8V20.1h-6.6c-0.1,0.3-0.4,0.6-0.9,1c-0.5,0.4-1,0.7-1.6,1.1c-0.6,0.3-1.1,0.6-1.7,0.8s-1,0.4-1.3,0.4
			v5.9c0.4,0,0.9-0.1,1.5-0.2c0.5-0.1,1.1-0.3,1.6-0.5c0.5-0.2,1-0.5,1.4-0.7c0.4-0.3,0.8-0.5,0.9-0.8v6.8h-4.8v5.8h15.7v-5.8H43z
			 M24.4,33.8V20.1h-6.6c-0.1,0.3-0.4,0.6-0.9,1c-0.5,0.4-1,0.7-1.6,1.1c-0.6,0.3-1.1,0.6-1.7,0.8s-1,0.4-1.3,0.4v5.9
			c0.4,0,0.9-0.1,1.5-0.2c0.5-0.1,1.1-0.3,1.6-0.5c0.5-0.2,1-0.5,1.4-0.7c0.4-0.3,0.8-0.5,0.9-0.8v6.8H13v5.8h15.7v-5.8H24.4z"/>
	</g>
</g>
</svg>
