<?xml version="1.0" encoding="utf-8"?>
<!-- Generator: Adobe Illustrator 23.0.3, SVG Export Plug-In . SVG Version: 6.00 Build 0)  -->
<svg version="1.1" id="Capa_1" xmlns="http://www.w3.org/2000/svg" xmlns:xlink="http://www.w3.org/1999/xlink" x="0px" y="0px"
	 viewBox="0 0 59.67 59.67" style="enable-background:new 0 0 59.67 59.67;" xml:space="preserve">
<style type="text/css">
	.st0{fill:#FFFFFF;}
	.st1{fill:#320090;}
</style>
<g>
	<path class="st0" d="M29.83,57.86c15.48,0,28.03-12.55,28.03-28.03S45.31,1.8,29.83,1.8S1.8,14.35,1.8,29.83
		S14.35,57.86,29.83,57.86"/>
	<path class="st0" d="M29.83,59.67C13.38,59.67,0,46.28,0,29.83C0,13.38,13.38,0,29.83,0c16.45,0,29.83,13.38,29.83,29.83
		C59.67,46.28,46.28,59.67,29.83,59.67z M29.83,3.6C15.37,3.6,3.6,15.37,3.6,29.83c0,14.46,11.77,26.23,26.23,26.23
		c14.46,0,26.23-11.77,26.23-26.23C56.06,15.37,44.3,3.6,29.83,3.6z"/>
	<path class="st1" d="M43,33.76V20.13h-6.59c-0.14,0.27-0.44,0.59-0.9,0.97c-0.47,0.37-0.98,0.73-1.55,1.05
		c-0.57,0.33-1.13,0.61-1.7,0.85c-0.57,0.24-1.01,0.36-1.33,0.36v5.91c0.43,0,0.92-0.07,1.46-0.2c0.54-0.14,1.08-0.32,1.61-0.54
		c0.53-0.23,1.01-0.47,1.44-0.73c0.43-0.26,0.75-0.53,0.95-0.8v6.76h-4.83v5.78h15.74v-5.78H43z M24.41,33.76V20.13h-6.59
		c-0.14,0.27-0.44,0.59-0.9,0.97s-0.98,0.73-1.55,1.05c-0.57,0.33-1.13,0.61-1.7,0.85s-1.01,0.36-1.32,0.36v5.91
		c0.43,0,0.92-0.07,1.46-0.2c0.54-0.14,1.08-0.32,1.61-0.54c0.53-0.23,1.01-0.47,1.44-0.73c0.43-0.26,0.75-0.53,0.95-0.8v6.76h-4.83
		v5.78h15.74v-5.78H24.41z"/>
</g>
</svg>
