<?xml version="1.0" encoding="utf-8"?>
<!-- Generator: Adobe Illustrator 23.0.3, SVG Export Plug-In . SVG Version: 6.00 Build 0)  -->
<svg version="1.1" id="Capa_1" xmlns="http://www.w3.org/2000/svg" xmlns:xlink="http://www.w3.org/1999/xlink" x="0px" y="0px"
	 viewBox="0 0 65.03 57.85" style="enable-background:new 0 0 65.03 57.85;" xml:space="preserve">
<style type="text/css">
	.st0{clip-path:url(#SVGID_2_);fill:#FF4800;}
</style>
<g>
	<g>
		<defs>
			<rect id="SVGID_1_" x="0.01" y="0" width="65.02" height="57.85"/>
		</defs>
		<clipPath id="SVGID_2_">
			<use xlink:href="#SVGID_1_"  style="overflow:visible;"/>
		</clipPath>
		<path class="st0" d="M65.03,19.54c0-5.34-1.83-10.27-5.16-13.88C56.5,2.01,51.89,0,46.86,0c-3.75,0-7.19,1.19-10.21,3.53
			c-1.53,1.18-2.91,2.63-4.13,4.31c-1.22-1.69-2.6-3.13-4.13-4.31C25.36,1.19,21.93,0,18.17,0C13.15,0,8.53,2.01,5.16,5.66
			C1.83,9.27,0,14.2,0,19.54c0,5.5,2.05,10.53,6.45,15.84c3.94,4.75,9.59,9.57,16.14,15.15l0.01,0.01c2.23,1.9,4.77,4.06,7.39,6.36
			c0.7,0.61,1.59,0.95,2.51,0.95s1.82-0.34,2.51-0.94c2.63-2.3,5.17-4.46,7.41-6.37c6.55-5.58,12.21-10.4,16.14-15.15
			C62.98,30.07,65.03,25.04,65.03,19.54"/>
	</g>
</g>
</svg>
