<?xml version="1.0" encoding="utf-8"?>
<!-- Generator: Adobe Illustrator 23.0.3, SVG Export Plug-In . SVG Version: 6.00 Build 0)  -->
<svg version="1.1" id="Capa_1" xmlns="http://www.w3.org/2000/svg" xmlns:xlink="http://www.w3.org/1999/xlink" x="0px" y="0px"
	 viewBox="0 0 62.79 59.68" style="enable-background:new 0 0 62.79 59.68;" xml:space="preserve">
<style type="text/css">
	.st0{fill:#FFFFFF;}
</style>
<g>
	<g>
		<path class="st0" d="M60.52,27.85L32.35,2.18c-0.54-0.5-1.36-0.5-1.91,0L2.27,27.85c-0.44,0.4-0.58,1-0.37,1.56
			c0.22,0.56,0.72,0.91,1.32,0.91h4.5c1,0,1.8,0.81,1.8,1.8v25.71L25,57.87l0.04-15.66c0-0.99,0.81-1.8,1.8-1.8h9.07
			c0.99,0,1.8,0.81,1.8,1.8v15.61l15.48,0.04l0.04-25.76c0-1,0.81-1.8,1.8-1.8h4.5c0.6,0,1.1-0.35,1.32-0.91
			C61.1,28.85,60.96,28.25,60.52,27.85z"/>
	</g>
	<g>
		<path class="st0" d="M25,59.67C25,59.67,24.99,59.67,25,59.67L9.51,59.63c-0.99,0-1.8-0.81-1.8-1.8V32.12l-4.5,0
			c-1.33,0-2.51-0.81-3-2.05c-0.48-1.28-0.15-2.66,0.83-3.55L29.22,0.84c1.25-1.13,3.12-1.13,4.35,0.01l28.16,25.66
			c1.01,0.92,1.32,2.35,0.77,3.58c-0.5,1.22-1.66,2-2.98,2h-4.5l-0.04,25.76c0,0.48-0.19,0.94-0.53,1.27
			c-0.34,0.34-0.79,0.54-1.28,0.53L37.7,59.62c-0.99,0-1.8-0.81-1.8-1.8V42.21l-9.07,0L26.8,57.87c0,0.48-0.19,0.94-0.53,1.27
			C25.93,59.48,25.47,59.67,25,59.67z M11.32,56.03l11.88,0.03l0.04-13.86c0-1.98,1.62-3.6,3.6-3.6h9.07c1.99,0,3.6,1.62,3.6,3.6
			v13.81l11.88,0.03l0.04-23.96c0-1.98,1.62-3.6,3.6-3.6h3.53L31.39,3.74L4.21,28.52h3.51c1.99,0,3.6,1.62,3.6,3.6V56.03z
			 M31.13,3.51C31.14,3.51,31.14,3.51,31.13,3.51L31.13,3.51z"/>
	</g>
</g>
</svg>
