<?xml version="1.0" encoding="utf-8"?>
<!-- Generator: Adobe Illustrator 23.0.3, SVG Export Plug-In . SVG Version: 6.00 Build 0)  -->
<svg version="1.1" id="Capa_1" xmlns="http://www.w3.org/2000/svg" xmlns:xlink="http://www.w3.org/1999/xlink" x="0px" y="0px"
	 viewBox="0 0 55.39 60.66" style="enable-background:new 0 0 55.39 60.66;" xml:space="preserve">
<style type="text/css">
	.st0{fill:#FFFFFF;}
	.st1{clip-path:url(#SVGID_2_);fill:#FFFFFF;}
	.st2{fill:#320090;}
</style>
<g>
	<rect x="1.8" y="1.81" class="st0" width="51.79" height="57.06"/>
	<g>
		<g>
			<defs>
				<rect id="SVGID_1_" width="55.39" height="60.66"/>
			</defs>
			<clipPath id="SVGID_2_">
				<use xlink:href="#SVGID_1_"  style="overflow:visible;"/>
			</clipPath>
			<path class="st1" d="M53.59,60.67H1.8c-1,0-1.8-0.81-1.8-1.8V1.81c0-1,0.81-1.8,1.8-1.8h51.79c1,0,1.8,0.81,1.8,1.8v57.06
				C55.39,59.86,54.58,60.67,53.59,60.67z M3.6,57.07h48.19V3.61H3.6V57.07z"/>
		</g>
	</g>
	<path class="st2" d="M43.19,13.14H12.2c-1,0-1.8-0.81-1.8-1.8s0.81-1.8,1.8-1.8h30.99c1,0,1.8,0.81,1.8,1.8
		S44.18,13.14,43.19,13.14z"/>
	<path class="st2" d="M43.19,22.64H12.2c-1,0-1.8-0.81-1.8-1.8s0.81-1.8,1.8-1.8h30.99c1,0,1.8,0.81,1.8,1.8
		S44.18,22.64,43.19,22.64z"/>
	<path class="st2" d="M43.19,32.13H12.2c-1,0-1.8-0.81-1.8-1.8s0.81-1.8,1.8-1.8h30.99c1,0,1.8,0.81,1.8,1.8
		S44.18,32.13,43.19,32.13z"/>
	<path class="st2" d="M43.19,41.63H12.2c-1,0-1.8-0.81-1.8-1.8s0.81-1.8,1.8-1.8h30.99c1,0,1.8,0.81,1.8,1.8
		S44.18,41.63,43.19,41.63z"/>
	<path class="st2" d="M43.19,51.13H12.2c-1,0-1.8-0.81-1.8-1.8s0.81-1.8,1.8-1.8h30.99c1,0,1.8,0.81,1.8,1.8
		S44.18,51.13,43.19,51.13z"/>
</g>
</svg>
