<?xml version="1.0" encoding="utf-8"?>
<!-- Generator: Adobe Illustrator 23.0.3, SVG Export Plug-In . SVG Version: 6.00 Build 0)  -->
<svg version="1.1" id="Capa_1" xmlns="http://www.w3.org/2000/svg" xmlns:xlink="http://www.w3.org/1999/xlink" x="0px" y="0px"
	 viewBox="0 0 59.67 59.67" style="enable-background:new 0 0 59.67 59.67;" xml:space="preserve">
<style type="text/css">
	.st0{fill:#FFFFFF;}
	.st1{fill:#320090;}
</style>
<g>
	<g>
		<path class="st0" d="M29.83,59.67c16.48,0,29.83-13.36,29.83-29.83c0-16.48-13.36-29.83-29.83-29.83C13.35,0.01,0,13.37,0,29.84
			S13.36,59.67,29.83,59.67"/>
	</g>
	<g>
		<path class="st1" d="M26.27,35.92c-5.03,0-9.13-4.09-9.13-9.13s4.1-9.13,9.13-9.13s9.13,4.09,9.13,9.13
			C35.4,31.82,31.31,35.92,26.27,35.92 M36.91,34.55c1.6-2.18,2.55-4.86,2.55-7.77c0-7.27-5.92-13.19-13.19-13.19
			s-13.19,5.92-13.19,13.19S19,39.97,26.27,39.97c2.9,0,5.58-0.96,7.77-2.55l8.64,8.64l2.87-2.87L36.91,34.55"/>
	</g>
</g>
</svg>
