<?xml version="1.0" encoding="utf-8"?>
<!-- Generator: Adobe Illustrator 23.0.3, SVG Export Plug-In . SVG Version: 6.00 Build 0)  -->
<svg version="1.1" id="Capa_1" xmlns="http://www.w3.org/2000/svg" xmlns:xlink="http://www.w3.org/1999/xlink" x="0px" y="0px"
	 viewBox="0 0 682.24 890.11" style="enable-background:new 0 0 682.24 890.11;" xml:space="preserve">
<style type="text/css">
	.st0{clip-path:url(#SVGID_2_);fill:none;stroke:#FFFFFF;stroke-width:6.662;stroke-miterlimit:10;}
</style>
<g>
	<g>
		<defs>
			<rect id="SVGID_1_" x="-0.2" width="682.24" height="890.11"/>
		</defs>
		<clipPath id="SVGID_2_">
			<use xlink:href="#SVGID_1_"  style="overflow:visible;"/>
		</clipPath>
		<path class="st0" d="M2.96,848.84c20.7,0,37.48,16.78,37.48,37.48 M678.71,848.84c-20.7,0-37.48,16.78-37.48,37.48 M404.23,741.08
			c-13.03-21.3-36.51-35.52-63.32-35.52c-26.8,0-50.28,14.22-63.31,35.52 M422.86,809.49h-163.9v77.28h163.9V809.49z M493.48,741.53
			H188.34v145.24h305.14V741.53z M2.96,40.81c20.7,0,37.48-16.78,37.48-37.48 M678.71,40.81c-20.7,0-37.48-16.78-37.48-37.48
			 M404.23,148.57c-13.03,21.3-36.51,35.52-63.32,35.52c-26.8,0-50.28-14.21-63.31-35.52 M422.86,80.61h-163.9V3.33h163.9V80.61z
			 M493.48,148.57H188.34V3.33h305.14V148.57z M432.46,442.39c0,52.21-42.33,94.54-94.54,94.54c-52.21,0-94.54-42.33-94.54-94.54
			s42.33-94.54,94.54-94.54C390.12,347.85,432.46,390.17,432.46,442.39z M3.8,443.05h674.24 M678.71,886.77H3.13V3.33h675.58v442.39
			L678.71,886.77L678.71,886.77z"/>
	</g>
</g>
</svg>
