<?xml version="1.0" encoding="utf-8"?>
<!-- Generator: Adobe Illustrator 23.0.3, SVG Export Plug-In . SVG Version: 6.00 Build 0)  -->
<svg version="1.1" id="Capa_1" xmlns="http://www.w3.org/2000/svg" xmlns:xlink="http://www.w3.org/1999/xlink" x="0px" y="0px"
	 viewBox="0 0 218.84 43.4" style="enable-background:new 0 0 218.84 43.4;" xml:space="preserve">
<style type="text/css">
	.st0{fill:#FFFFFF;}
	.st1{fill:#004A8F;}
	.st2{fill:#00C1E2;}
</style>
<g>
	<path class="st0" d="M197.15,43.4H21.7C9.76,43.4,0,33.63,0,21.7v0C0,9.76,9.76,0,21.7,0l175.45,0c11.93,0,21.7,9.76,21.7,21.7v0
		C218.84,33.63,209.08,43.4,197.15,43.4z"/>
	<g>
		<g>
			<path class="st1" d="M11.53,21.84v-0.28c0-7.61,5.4-12.63,12.63-12.63c6.43,0,10.9,2.97,11.48,9.51l-7.3,0
				c-0.28-2.53-1.66-3.91-4.15-3.91c-3.18,0-5.19,2.49-5.19,6.99v0.28c0,4.46,1.9,6.99,5.29,6.99c2.49,0,4.25-1.31,4.6-4.05l7.06,0
				c-0.48,6.4-5.12,9.72-11.52,9.72C15.79,34.46,11.53,29.41,11.53,21.84z M37.76,21.84v-0.28c0-7.54,5.67-12.59,13.08-12.59
				c7.54,0,13.11,4.74,13.11,12.42v0.28c0,7.61-5.22,12.8-13.21,12.8S37.76,29.27,37.76,21.84z M56.54,21.77v-0.28
				c0-4.39-2.21-6.99-5.71-6.99c-3.49,0-5.67,2.53-5.67,7.02v0.28c0,4.5,2.28,7.09,5.71,7.09C54.36,28.89,56.54,26.19,56.54,21.77z
				 M67.4,9.31l7.99,0l7.92,13.94V9.31l6.19,0l0,24.73l-6.85,0l-9.03-15.53l0,15.53l-6.23,0L67.4,9.31z M94.28,9.31l17.09,0v5.47
				l-10.03,0v4.26l7.99,0v5.05l-7.99,0v4.5l10.59,0v5.47l-17.64,0L94.28,9.31z M113.83,21.84v-0.28c0-7.61,5.4-12.63,12.63-12.63
				c6.43,0,10.9,2.97,11.48,9.51l-7.3,0c-0.28-2.53-1.66-3.91-4.15-3.91c-3.18,0-5.19,2.49-5.19,6.99v0.28
				c0,4.46,1.9,6.99,5.29,6.99c2.49,0,4.25-1.31,4.6-4.05l7.06,0c-0.48,6.4-5.12,9.72-11.52,9.72
				C118.09,34.46,113.83,29.41,113.83,21.84z M145.76,14.78l-6.4,0V9.31l19.92,0l0,5.47l-6.4,0l0,19.27l-7.13,0V14.78z M166.14,9.31
				l9.17,0l7.85,24.73l-7.51,0l-1.31-4.6l-8.2,0l-1.31,4.6l-6.61,0L166.14,9.31z M167.52,24.57l5.43,0l-2.7-9.51L167.52,24.57z"/>
		</g>
		<path class="st2" d="M203.09,24.47V9.35l-8.54,0l-10.31,17.33v2.66l12.04,0v4.74l6.81,0v-4.74l3.18,0v-4.88H203.09z M196.45,24.47
			l-5.53,0l5.53-9.79V24.47z"/>
	</g>
</g>
</svg>
