<?xml version="1.0" encoding="utf-8"?>
<!-- Generator: Adobe Illustrator 23.0.3, SVG Export Plug-In . SVG Version: 6.00 Build 0)  -->
<svg version="1.1" id="Capa_1" xmlns="http://www.w3.org/2000/svg" xmlns:xlink="http://www.w3.org/1999/xlink" x="0px" y="0px"
	 viewBox="0 0 39.23 39.23" style="enable-background:new 0 0 39.23 39.23;" xml:space="preserve">
<style type="text/css">
	.st0{fill:#004A8F;}
	.st1{fill:#FFFFFF;}
</style>
<circle class="st0" cx="19.61" cy="19.61" r="19.61"/>
<g>
	<path class="st1" d="M19.29,30.39c1.71,0,3.33-0.4,4.76-1.11l-2.3-2.3c-0.77,0.26-1.6,0.41-2.46,0.41c-4.29,0-7.78-3.49-7.78-7.78
		c0-4.29,3.49-7.78,7.78-7.78c4.29,0,7.78,3.49,7.78,7.78c0,0.01-0.01,0.04,0,0.06l0,0l-2.54,0l4.04,4.02l4.03-4.02l-2.53,0
		c-0.01-0.02-0.01-0.05,0-0.06c0-5.95-4.82-10.77-10.77-10.77c-5.96,0-10.78,4.82-10.78,10.78C8.52,25.56,13.34,30.39,19.29,30.39z"
		/>
</g>
</svg>
