<?xml version="1.0" encoding="utf-8"?>
<!-- Generator: Adobe Illustrator 23.0.3, SVG Export Plug-In . SVG Version: 6.00 Build 0)  -->
<svg version="1.1" id="Capa_1" xmlns="http://www.w3.org/2000/svg" xmlns:xlink="http://www.w3.org/1999/xlink" x="0px" y="0px"
	 viewBox="0 0 58.55 54.42" style="enable-background:new 0 0 58.55 54.42;" xml:space="preserve">
<style type="text/css">
	.st0{fill:#64ABFF;}
	.st1{fill:#5689FC;}
	.st2{fill:#EDAC00;}
	.st3{fill:#FFA92C;}
	.st4{fill:#C53500;}
	.st5{fill:#A52B0A;}
	.st6{fill:#004A8F;}
	.st7{fill:#065784;}
	.st8{fill:#043D56;}
</style>
<g>
	<path class="st0" d="M51.99,51.23c2.09-2.07,1.31-1.3,3.4-3.37c0,0-14.57-12.75-17.84-29.12c-0.64,0.63-13.86,13.72-14.5,14.35
		C39.38,36.54,51.99,51.23,51.99,51.23z"/>
	<path class="st1" d="M24.94,31.23l-1.89,1.87c16.34,3.43,28.94,18.13,28.94,18.13l1.58-1.56C51.12,46.99,39.61,35.09,24.94,31.23z"
		/>
	<g>
		<path class="st2" d="M23.19,18.6c-0.35,0.35-0.91,0.35-1.25,0L10.18,6.85c-0.35-0.35-0.35-0.91,0-1.25c0.35-0.35,0.91-0.35,1.25,0
			l11.75,11.75C23.54,17.7,23.54,18.26,23.19,18.6z"/>
		<path class="st2" d="M25.85,17.28c-0.43,0.23-0.97,0.07-1.2-0.36c-0.17-0.31-4.09-7.73-4.38-15.27c-0.02-0.49,0.36-0.9,0.85-0.92
			c0.49-0.02,0.9,0.36,0.92,0.85c0.27,7.12,4.13,14.43,4.17,14.51C26.45,16.52,26.28,17.05,25.85,17.28z"/>
		<path class="st2" d="M31.27,5.29c0,0.13-0.03,0.27-0.09,0.4c-2.85,5.7-1.54,10.52-1.53,10.56c0.13,0.47-0.14,0.96-0.61,1.09
			c-0.47,0.13-0.96-0.13-1.09-0.6c-0.06-0.22-1.54-5.5,1.64-11.85c0.22-0.44,0.75-0.61,1.19-0.4C31.09,4.65,31.27,4.97,31.27,5.29z"
			/>
		<path class="st2" d="M21.93,21.21c-0.23,0.43-0.77,0.59-1.2,0.36c-0.09-0.05-7.39-3.9-14.51-4.17c-0.49-0.02-0.87-0.43-0.85-0.92
			c0.02-0.49,0.43-0.87,0.92-0.85c7.54,0.29,14.96,4.21,15.27,4.38C22,20.24,22.16,20.78,21.93,21.21z"/>
		<path class="st2" d="M21.99,24.39c-0.14,0.47-0.63,0.74-1.09,0.6l0,0c-0.05-0.01-4.86-1.33-10.56,1.53
			c-0.44,0.22-0.97,0.04-1.19-0.4c-0.22-0.44-0.04-0.97,0.4-1.19c6.35-3.18,11.63-1.71,11.85-1.64
			C21.86,23.43,22.13,23.92,21.99,24.39z"/>
	</g>
	<path class="st0" d="M7.56,0.08c1.04,0.3,1.65,1.39,1.34,2.44C8.6,3.56,7.51,4.16,6.47,3.86c-1.04-0.3-1.65-1.39-1.34-2.44
		C5.43,0.38,6.52-0.22,7.56,0.08z"/>
	<path class="st1" d="M5.28,1.04c-0.6,1.12-0.01,2.48,1.19,2.82c1.68,0.48,3.1-1.3,2.28-2.82C8.01,2.42,6.02,2.42,5.28,1.04z"/>
	<ellipse transform="matrix(0.8696 -0.4938 0.4938 0.8696 0.6135 8.0478)" class="st3" cx="15.54" cy="2.86" rx="1.25" ry="1.25"/>
	<ellipse transform="matrix(0.862 -0.5069 0.5069 0.862 -12.945 7.2586)" class="st0" cx="6.86" cy="27.4" rx="1.25" ry="1.25"/>
	<path class="st4" d="M5.03,7.52L3.29,8.48L1.51,7.6c-0.1-0.05-0.22-0.04-0.31,0.03C1.12,7.7,1.08,7.81,1.1,7.92l0.38,1.95
		c-1.49,1.52-1.54,1.49-1.46,1.72c0.08,0.23,0.12,0.18,2.21,0.43l0.92,1.76c0.11,0.21,0.42,0.21,0.52-0.01l0.84-1.8l1.96-0.33
		c0.11-0.02,0.2-0.1,0.23-0.2c0.07-0.23,0.01-0.21-1.54-1.65l0.29-1.97C5.49,7.58,5.24,7.4,5.03,7.52z"/>
	<path class="st5" d="M4.4,10.13C3.5,12.06,3.54,12.1,3.3,12.1c-0.24,0.01-0.21-0.04-1.19-1.92l-0.85-0.1l-1.18,1.21
		c-0.17,0.17-0.07,0.46,0.17,0.49l1.97,0.24c0.99,1.89,0.95,1.92,1.19,1.92c0.11,0,0.21-0.07,0.26-0.17l0.84-1.8l1.96-0.33
		c0.11-0.02,0.2-0.1,0.23-0.2c0.03-0.11,0-0.22-0.08-0.3L5.37,9.97L4.4,10.13z"/>
	<path class="st6" d="M37.97,39.43l3.42-9.86c-1.05-2.07-1.98-4.27-2.72-6.56L33.8,37.04C35.26,37.79,36.65,38.6,37.97,39.43z"/>
	<path class="st7" d="M38.69,37.35c-1.33-0.83-2.72-1.63-4.17-2.37l-0.71,2.06c1.31,0.68,2.73,1.48,4.17,2.39L38.69,37.35z"/>
	<path class="st6" d="M48.57,40.55c-1.11-1.37-2.27-2.91-3.4-4.6l-2.37,6.84c1.44,1.11,2.75,2.19,3.89,3.2L48.57,40.55z"/>
	<path class="st7" d="M47.44,43.8c-1.17-1-2.48-2.06-3.91-3.13l-0.74,2.13c1.32,1.01,2.63,2.09,3.89,3.2L47.44,43.8z"/>
	<path class="st6" d="M36.7,14.32l-18.08,17.9c-0.59,0.59-0.6,1.54-0.01,2.14l0.62,0.63c0.59,0.59,1.54,0.6,2.14,0.01l18.08-17.9
		c0.59-0.59,0.6-1.54,0.01-2.14l-0.62-0.63C38.25,13.74,37.3,13.73,36.7,14.32z"/>
	<path class="st8" d="M38.06,15.82l-18.08,17.9c-0.43,0.43-1.06,0.54-1.59,0.34c0.13,0.22,0.17,0.25,0.85,0.93
		c0.59,0.59,1.54,0.6,2.14,0.01l18.08-17.9c0.59-0.59,0.6-1.54,0.01-2.14l-0.62-0.63c-0.16-0.16-0.35-0.28-0.54-0.35
		C38.64,14.56,38.56,15.32,38.06,15.82z"/>
	<path class="st4" d="M51.77,53.34l0.62,0.63c0.59,0.59,1.54,0.6,2.14,0.01l3.58-3.54c0.59-0.59,0.6-1.54,0.01-2.14l-0.62-0.63
		c-0.59-0.59-1.54-0.6-2.14-0.01l-3.58,3.54C51.19,51.79,51.18,52.75,51.77,53.34z"/>
	<path class="st5" d="M56.77,49.21l-3.58,3.54c-0.44,0.44-1.08,0.55-1.63,0.33c0.06,0.09,0.13,0.18,0.21,0.26l0.62,0.63
		c0.59,0.59,1.54,0.6,2.14,0.01l3.58-3.54c0.59-0.59,0.6-1.54,0.01-2.14c-0.67-0.68-0.77-0.82-1.13-0.97
		C57.35,47.92,57.28,48.7,56.77,49.21z"/>
</g>
</svg>
