<?xml version="1.0" encoding="utf-8"?>
<!-- Generator: Adobe Illustrator 23.0.3, SVG Export Plug-In . SVG Version: 6.00 Build 0)  -->
<svg version="1.1" id="Capa_1" xmlns="http://www.w3.org/2000/svg" xmlns:xlink="http://www.w3.org/1999/xlink" x="0px" y="0px"
	 viewBox="0 0 54.42 58.55" style="enable-background:new 0 0 54.42 58.55;" xml:space="preserve">
<style type="text/css">
	.st0{fill:#64ABFF;}
	.st1{fill:#5689FC;}
	.st2{fill:#EDAC00;}
	.st3{fill:#FFA92C;}
	.st4{fill:#C53500;}
	.st5{fill:#A52B0A;}
	.st6{fill:#004A8F;}
	.st7{fill:#065784;}
	.st8{fill:#043D56;}
</style>
<g>
	<path class="st0" d="M3.18,51.99c2.07,2.09,1.3,1.31,3.37,3.4c0,0,12.75-14.57,29.12-17.84c-0.63-0.64-13.72-13.86-14.35-14.5
		C17.88,39.38,3.18,51.99,3.18,51.99z"/>
	<path class="st1" d="M23.18,24.94l-1.87-1.89C17.88,39.38,3.18,51.99,3.18,51.99l1.56,1.58C7.42,51.12,19.32,39.61,23.18,24.94z"/>
	<g>
		<path class="st2" d="M35.81,23.19c-0.35-0.35-0.35-0.91,0-1.25l11.75-11.75c0.35-0.35,0.91-0.35,1.25,0
			c0.35,0.35,0.35,0.91,0,1.25L37.06,23.19C36.72,23.54,36.16,23.54,35.81,23.19z"/>
		<path class="st2" d="M37.13,25.85c-0.23-0.43-0.07-0.97,0.36-1.2c0.31-0.17,7.73-4.09,15.27-4.38c0.49-0.02,0.9,0.36,0.92,0.85
			c0.02,0.49-0.36,0.9-0.85,0.92c-7.12,0.27-14.43,4.13-14.51,4.17C37.9,26.45,37.36,26.28,37.13,25.85z"/>
		<path class="st2" d="M49.12,31.27c-0.13,0-0.27-0.03-0.4-0.09c-5.7-2.85-10.52-1.54-10.56-1.53c-0.47,0.13-0.96-0.14-1.09-0.61
			c-0.13-0.47,0.13-0.96,0.6-1.09c0.22-0.06,5.5-1.54,11.85,1.64c0.44,0.22,0.61,0.75,0.4,1.19C49.76,31.09,49.45,31.27,49.12,31.27
			z"/>
		<path class="st2" d="M33.21,21.93c-0.43-0.23-0.59-0.77-0.36-1.2c0.05-0.09,3.9-7.39,4.17-14.51c0.02-0.49,0.43-0.87,0.92-0.85
			c0.49,0.02,0.87,0.43,0.85,0.92c-0.29,7.54-4.21,14.96-4.38,15.27C34.18,22,33.64,22.16,33.21,21.93z"/>
		<path class="st2" d="M30.02,21.99c-0.47-0.14-0.74-0.63-0.6-1.09l0,0c0.01-0.05,1.33-4.86-1.53-10.56
			c-0.22-0.44-0.04-0.97,0.4-1.19c0.44-0.22,0.97-0.04,1.19,0.4c3.18,6.35,1.71,11.63,1.64,11.85
			C30.98,21.86,30.49,22.13,30.02,21.99z"/>
	</g>
	<path class="st0" d="M54.34,7.56c-0.3,1.04-1.39,1.65-2.44,1.34c-1.04-0.3-1.65-1.39-1.34-2.44c0.3-1.04,1.39-1.65,2.44-1.34
		C54.04,5.43,54.64,6.52,54.34,7.56z"/>
	<path class="st1" d="M53.38,5.28c-1.12-0.6-2.48-0.01-2.82,1.19c-0.48,1.68,1.3,3.1,2.82,2.28C51.99,8.01,52,6.02,53.38,5.28z"/>
	
		<ellipse transform="matrix(0.8679 -0.4968 0.4968 0.8679 -0.9088 27.6649)" class="st3" cx="51.55" cy="15.54" rx="1.25" ry="1.25"/>
	<ellipse transform="matrix(0.8603 -0.5098 0.5098 0.8603 0.2775 14.7284)" class="st0" cx="27.01" cy="6.86" rx="1.25" ry="1.25"/>
	<path class="st4" d="M46.9,5.03l-0.97-1.74l0.88-1.78c0.05-0.1,0.04-0.22-0.03-0.31c-0.07-0.09-0.18-0.13-0.29-0.11l-1.95,0.38
		c-1.52-1.49-1.49-1.54-1.72-1.46C42.6,0.1,42.65,0.14,42.4,2.24l-1.76,0.92c-0.21,0.11-0.21,0.42,0.01,0.52l1.8,0.84l0.33,1.96
		c0.02,0.11,0.1,0.2,0.2,0.23c0.23,0.07,0.21,0.01,1.65-1.54l1.97,0.29C46.84,5.49,47.01,5.24,46.9,5.03z"/>
	<path class="st5" d="M44.28,4.4c-1.93-0.9-1.96-0.85-1.97-1.09c-0.01-0.24,0.04-0.21,1.92-1.19l0.1-0.85l-1.21-1.18
		c-0.17-0.17-0.46-0.07-0.49,0.17L42.4,2.24c-1.89,0.99-1.92,0.95-1.92,1.19c0,0.11,0.07,0.21,0.17,0.26l1.8,0.84l0.33,1.96
		c0.02,0.11,0.1,0.2,0.2,0.23c0.11,0.03,0.22,0,0.3-0.08l1.17-1.26L44.28,4.4z"/>
	<path class="st6" d="M14.98,37.97l9.86,3.42c2.07-1.05,4.27-1.98,6.56-2.72L17.38,33.8C16.63,35.26,15.82,36.65,14.98,37.97z"/>
	<path class="st7" d="M17.06,38.69c0.83-1.33,1.63-2.72,2.37-4.17l-2.06-0.71c-0.68,1.31-1.48,2.73-2.39,4.17L17.06,38.69z"/>
	<path class="st6" d="M13.86,48.57c1.37-1.11,2.91-2.27,4.6-3.4l-6.84-2.37c-1.11,1.44-2.19,2.75-3.2,3.89L13.86,48.57z"/>
	<path class="st7" d="M10.62,47.44c1-1.17,2.06-2.48,3.13-3.91l-2.13-0.74c-1.01,1.32-2.09,2.63-3.2,3.89L10.62,47.44z"/>
	<path class="st6" d="M40.09,36.7l-17.9-18.08c-0.59-0.59-1.54-0.6-2.14-0.01l-0.63,0.62c-0.59,0.59-0.6,1.54-0.01,2.14l17.9,18.08
		c0.59,0.59,1.54,0.6,2.14,0.01l0.63-0.62C40.68,38.25,40.68,37.3,40.09,36.7z"/>
	<path class="st8" d="M38.6,38.06L20.7,19.98c-0.43-0.43-0.54-1.06-0.34-1.59c-0.22,0.13-0.25,0.17-0.93,0.85
		c-0.59,0.59-0.6,1.54-0.01,2.14l17.9,18.08c0.59,0.59,1.54,0.6,2.14,0.01l0.63-0.62c0.16-0.16,0.28-0.35,0.35-0.54
		C39.85,38.64,39.09,38.56,38.6,38.06z"/>
	<path class="st4" d="M1.07,51.77l-0.63,0.62c-0.59,0.59-0.6,1.54-0.01,2.14l3.54,3.58c0.59,0.59,1.54,0.6,2.14,0.01l0.63-0.62
		c0.59-0.59,0.6-1.54,0.01-2.14l-3.54-3.58C2.62,51.19,1.67,51.18,1.07,51.77z"/>
	<path class="st5" d="M5.21,56.77l-3.54-3.58c-0.44-0.44-0.55-1.08-0.33-1.63c-0.09,0.06-0.18,0.13-0.26,0.21l-0.63,0.62
		c-0.59,0.59-0.6,1.54-0.01,2.14l3.54,3.58c0.59,0.59,1.54,0.6,2.14,0.01c0.68-0.67,0.82-0.77,0.97-1.13
		C6.5,57.35,5.72,57.28,5.21,56.77z"/>
</g>
</svg>
