<?xml version="1.0" encoding="utf-8"?>
<svg width="102px" height="275px" viewBox="0 0 102 275" version="1.1" xmlns:xlink="http://www.w3.org/1999/xlink" xmlns="http://www.w3.org/2000/svg">
  <desc>Created with Lunacy</desc>
  <g id="thermometer" transform="translate(0.5 0.5)">
    <path d="M52.0027 0C68.5167 0 74.5427 13.4368 74.5427 30.0118L74.5427 169.305C74.5427 173.925 76.1934 181.11 79.7835 184C92.8079 194.484 100.003 207.728 100.003 225.789C100.003 257.657 82.8546 274.034 51.0025 273.589C20.1984 273.159 0.288475 256.709 0.00253655 225.789C-0.16653 207.49 8.12784 194.589 21.3054 184C24.8842 181.124 26.5947 173.905 26.5947 169.305L26.5947 30.0118C26.5947 13.4368 35.4886 0 52.0027 0ZM50.0035 18L50.0015 18Q49.707 18 49.4128 18.0145Q49.1186 18.0289 48.8254 18.0578Q48.5323 18.0867 48.2409 18.1299Q47.9495 18.1731 47.6606 18.2306Q47.3717 18.288 47.086 18.3596Q46.8003 18.4312 46.5184 18.5167Q46.2365 18.6022 45.9592 18.7014Q45.6819 18.8006 45.4097 18.9134Q45.1376 19.0261 44.8713 19.152Q44.605 19.278 44.3452 19.4168Q44.0855 19.5557 43.8328 19.7071Q43.5802 19.8585 43.3352 20.0222Q43.0903 20.1858 42.8537 20.3613Q42.6171 20.5368 42.3895 20.7236Q42.1618 20.9105 41.9435 21.1083Q41.7252 21.3061 41.517 21.5144Q41.3087 21.7227 41.1109 21.941Q40.913 22.1592 40.7262 22.3869Q40.5393 22.6146 40.3638 22.8512Q40.1884 23.0878 40.0247 23.3327Q39.8611 23.5776 39.7096 23.8303Q39.5582 24.0829 39.4194 24.3427Q39.2805 24.6025 39.1546 24.8688Q39.0286 25.135 38.9159 25.4072Q38.8032 25.6793 38.7039 25.9567Q38.6047 26.234 38.5192 26.5159Q38.4337 26.7977 38.3621 27.0835Q38.2906 27.3692 38.2331 27.6581Q38.1756 27.947 38.1324 28.2384Q38.0892 28.5298 38.0603 28.8229Q38.0314 29.116 38.017 29.4102Q38.0025 29.7044 38.0025 29.999L38.0025 187.001Q38.0025 187.296 38.017 187.59Q38.0314 187.884 38.0603 188.177Q38.0892 188.47 38.1324 188.762Q38.1756 189.053 38.2331 189.342Q38.2906 189.631 38.3621 189.917Q38.4337 190.202 38.5192 190.484Q38.6047 190.766 38.7039 191.043Q38.8032 191.321 38.9159 191.593Q39.0286 191.865 39.1546 192.131Q39.2805 192.398 39.4194 192.657Q39.5582 192.917 39.7096 193.17Q39.8611 193.422 40.0247 193.667Q40.1884 193.912 40.3638 194.149Q40.5393 194.385 40.7262 194.613Q40.913 194.841 41.1109 195.059Q41.3087 195.277 41.517 195.486Q41.7252 195.694 41.9435 195.892Q42.1618 196.089 42.3895 196.276Q42.6171 196.463 42.8537 196.639Q43.0903 196.814 43.3352 196.978Q43.5802 197.141 43.8328 197.293Q44.0855 197.444 44.3452 197.583Q44.605 197.722 44.8713 197.848Q45.1376 197.974 45.4097 198.087Q45.6819 198.199 45.9592 198.299Q46.2365 198.398 46.5184 198.483Q46.8003 198.569 47.086 198.64Q47.3717 198.712 47.6606 198.769Q47.9495 198.827 48.2409 198.87Q48.5323 198.913 48.8254 198.942Q49.1186 198.971 49.4128 198.986Q49.707 199 50.0015 199L50.0035 199Q50.2981 199 50.5923 198.986Q50.8865 198.971 51.1796 198.942Q51.4728 198.913 51.7642 198.87Q52.0555 198.827 52.3444 198.769Q52.6333 198.712 52.9191 198.64Q53.2048 198.569 53.4867 198.483Q53.7685 198.398 54.0459 198.299Q54.3232 198.199 54.5953 198.087Q54.8675 197.974 55.1338 197.848Q55.4 197.722 55.6598 197.583Q55.9196 197.444 56.1722 197.293Q56.4249 197.141 56.6698 196.978Q56.9147 196.814 57.1513 196.639Q57.3879 196.463 57.6156 196.276Q57.8433 196.089 58.0616 195.892Q58.2798 195.694 58.4881 195.486Q58.6964 195.277 58.8942 195.059Q59.092 194.841 59.2789 194.613Q59.4658 194.385 59.6412 194.149Q59.8167 193.912 59.9803 193.667Q60.144 193.422 60.2954 193.17Q60.4468 192.917 60.5857 192.657Q60.7246 192.398 60.8505 192.131Q60.9764 191.865 61.0892 191.593Q61.2019 191.321 61.3011 191.043Q61.4003 190.766 61.4859 190.484Q61.5714 190.202 61.6429 189.917Q61.7145 189.631 61.772 189.342Q61.8294 189.053 61.8727 188.762Q61.9159 188.47 61.9448 188.177Q61.9736 187.884 61.9881 187.59Q62.0025 187.296 62.0025 187.001L62.0025 29.999Q62.0025 29.7044 61.9881 29.4102Q61.9736 29.116 61.9448 28.8229Q61.9159 28.5298 61.8727 28.2384Q61.8294 27.947 61.772 27.6581Q61.7145 27.3692 61.6429 27.0835Q61.5714 26.7977 61.4859 26.5159Q61.4003 26.234 61.3011 25.9567Q61.2019 25.6793 61.0892 25.4072Q60.9764 25.135 60.8505 24.8688Q60.7246 24.6025 60.5857 24.3427Q60.4468 24.0829 60.2954 23.8303Q60.144 23.5776 59.9803 23.3327Q59.8167 23.0878 59.6412 22.8512Q59.4658 22.6146 59.2789 22.3869Q59.092 22.1592 58.8942 21.941Q58.6964 21.7227 58.4881 21.5144Q58.2798 21.3061 58.0616 21.1083Q57.8433 20.9105 57.6156 20.7236Q57.3879 20.5368 57.1513 20.3613Q56.9147 20.1858 56.6698 20.0222Q56.4249 19.8585 56.1722 19.7071Q55.9196 19.5557 55.6598 19.4168Q55.4 19.278 55.1338 19.152Q54.8675 19.0261 54.5953 18.9134Q54.3232 18.8006 54.0459 18.7014Q53.7685 18.6022 53.4867 18.5167Q53.2048 18.4312 52.9191 18.3596Q52.6333 18.288 52.3444 18.2306Q52.0555 18.1731 51.7641 18.1299Q51.4728 18.0867 51.1796 18.0578Q50.8865 18.0289 50.5923 18.0145Q50.2981 18 50.0035 18Z" id="Combined-Shape" fill="#D7EFFA" fill-rule="evenodd" stroke="none" />
    <path d="M55.7101 11.8597C51.4397 9.11738 50.6493 5.2193 50.6493 1.42291e-14L26.2987 0C26.2987 5.2193 23.5598 9.11795 19.2894 11.8603L17.8413 12.7904C6.54721 20.0412 -0.122086 32.5974 0.00169322 46.3781C0.189005 67.38 16.7683 84.7038 36.9603 84.996C37.1399 84.9989 37.5014 85 37.5019 85C48.1585 85 58.1358 80.4095 65.3457 72.1272C71.1091 65.5056 74.518 56.9574 74.9507 48.0377C75.6495 33.622 68.8833 20.3175 57.1582 12.7898L55.7101 11.8597Z" transform="matrix(0.9998477 0.01745241 -0.01745241 0.9998477 11.74997 179.352)" id="Path" fill="#F26E91" stroke="none" />
    <g id="Group" transform="translate(62.00247 62)" />
    <g id="Group" transform="translate(65.00247 35)">
      <path d="M3.25965 9L8.56532 9C8.71311 9 8.85743 8.9814 9 8.9556L9 0.0444C8.85743 0.0186 8.71311 0 8.56532 0L3.26008 0C1.45921 0 9.70588e-08 2.0148 9.70588e-08 4.5C-0.000434581 6.9852 1.45921 9 3.25965 9L3.25965 9Z" transform="translate(0 67)" id="Path" fill="#A2E6FE" stroke="none" />
      <path d="M3.25992 1.7053e-14C1.45914 1.7053e-14 0 2.0148 0 4.5C0 6.9852 1.45914 9 3.25992 9L8.56534 9C8.71313 9 8.85743 8.982 9 8.9556L9 0.0444C8.85743 0.018 8.71313 0 8.56534 0L3.25992 1.7053e-14Z" transform="translate(0 81)" id="Path" fill="#A2E6FE" stroke="none" />
      <path d="M8.56532 9C8.71311 9 8.85743 8.982 9 8.9556L9 0.0444C8.85743 0.018 8.71311 0 8.56532 0L3.26008 0C1.45921 0 1.94074e-07 2.0148 1.94074e-07 4.5C-0.000434484 6.9852 1.45921 9 3.25965 9L8.56532 9Z" transform="translate(0 122)" id="Path" fill="#A2E6FE" stroke="none" />
      <path d="M3.25965 9L8.56532 9C8.71311 9 8.85743 8.982 9 8.9556L9 0.0444C8.85743 0.018 8.71311 0 8.56532 0L3.26008 0C1.45921 0 9.70588e-08 2.0148 9.70588e-08 4.5C-0.000434581 6.9852 1.45921 9 3.25965 9L3.25965 9Z" transform="translate(0 108)" id="Path" fill="#A2E6FE" stroke="none" />
      <path d="M3.25965 9L8.56532 9C8.71311 9 8.85743 8.9814 9 8.9556L9 0.0444C8.85743 0.018 8.71311 0 8.56532 0L3.26008 0C1.45921 0 0 2.0148 0 4.5C0 6.9852 1.45921 9 3.25965 9L3.25965 9Z" transform="translate(0 94)" id="Path" fill="#A2E6FE" stroke="none" />
      <path d="M3.25965 9L8.56532 9C8.71311 9 8.85743 8.9814 9 8.9556L9 0.0444C8.85743 0.0186 8.71311 0 8.56532 0L3.26008 0C1.45921 0 9.70588e-08 2.0148 9.70588e-08 4.5C-0.000434581 6.9852 1.45921 9 3.25965 9L3.25965 9Z" id="Path" fill="#A2E6FE" stroke="none" />
      <path d="M3.25992 1.7053e-14C1.45914 1.7053e-14 0 2.0148 0 4.5C0 6.9852 1.45914 9 3.25992 9L8.56534 9C8.71313 9 8.85743 8.982 9 8.9556L9 0.0444C8.85743 0.018 8.71313 0 8.56534 0L3.25992 1.7053e-14Z" transform="translate(0 14)" id="Path" fill="#A2E6FE" stroke="none" />
      <path d="M8.56532 9C8.71311 9 8.85743 8.982 9 8.9556L9 0.0444C8.85743 0.018 8.71311 0 8.56532 0L3.26008 0C1.45921 0 1.94074e-07 2.0148 1.94074e-07 4.5C-0.000434484 6.9852 1.45921 9 3.25965 9L8.56532 9Z" transform="translate(0 55)" id="Path" fill="#A2E6FE" stroke="none" />
      <path d="M3.25965 9L8.56532 9C8.71311 9 8.85743 8.982 9 8.9556L9 0.0444C8.85743 0.018 8.71311 0 8.56532 0L3.26008 0C1.45921 0 9.70588e-08 2.0148 9.70588e-08 4.5C-0.000434581 6.9852 1.45921 9 3.25965 9L3.25965 9Z" transform="translate(0 41)" id="Path" fill="#A2E6FE" stroke="none" />
      <path d="M3.25965 9L8.56532 9C8.71311 9 8.85743 8.9814 9 8.9556L9 0.0444C8.85743 0.018 8.71311 0 8.56532 0L3.26008 0C1.45921 0 0 2.0148 0 4.5C0 6.9852 1.45921 9 3.25965 9L3.25965 9Z" transform="translate(0 27)" id="Path" fill="#A2E6FE" stroke="none" />
    </g>
  </g>
</svg>